 <svg  version="1.0" xmlns="http://www.w3.org/2000/svg" width="100px" height="100px" viewBox="-100 0 920.000000 920.000000"  preserveAspectRatio="xMidYMid meet">  <g transform="translate(0.000000,920.000000) scale(0.100000,-0.100000)" fill="#ffffff" stroke="none"> <path d="M3555 7784 c-7 -11 -45 -19 -145 -29 -74 -8 -180 -24 -235 -35 -55 -11 -120 -24 -145 -29 -25 -4 -58 -13 -73 -20 -16 -6 -43 -11 -61 -11 -17 0 -37 -5 -43 -11 -6 -6 -26 -13 -45 -15 -18 -2 -42 -8 -53 -13 -11 -5 -58 -21 -105 -36 -47 -15 -106 -38 -132 -51 -26 -13 -59 -24 -73 -24 -14 0 -28 -7 -31 -15 -4 -8 -15 -15 -25 -15 -11 0 -27 -4 -37 -8 -107 -53 -171 -82 -179 -82 -6 0 -16 -7 -23 -15 -7 -8 -23 -15 -35 -15 -13 0 -25 -7 -29 -15 -3 -8 -12 -15 -20 -15 -8 0 -67 -31 -131 -70 -64 -38 -120 -70 -124 -70 -4 0 -16 -9 -26 -20 -10 -11 -24 -20 -32 -20 -7 0 -13 -4 -13 -10 0 -5 -5 -10 -11 -10 -6 0 -21 -8 -34 -17 -12 -10 -33 -25 -45 -33 -13 -8 -30 -22 -39 -31 -9 -9 -34 -28 -57 -42 -22 -14 -47 -31 -55 -39 -8 -7 -36 -31 -64 -53 -96 -77 -112 -92 -291 -270 -99 -99 -212 -218 -250 -265 -38 -47 -72 -86 -76 -88 -5 -2 -8 -9 -8 -14 0 -6 -7 -18 -15 -27 -9 -9 -45 -56 -80 -106 -36 -49 -69 -95 -75 -102 -5 -6 -20 -31 -32 -55 -12 -24 -32 -56 -44 -73 -12 -16 -37 -59 -56 -95 -20 -36 -49 -91 -66 -122 -17 -31 -36 -65 -41 -75 -26 -47 -71 -147 -71 -156 0 -6 -13 -37 -29 -71 -16 -34 -32 -76 -35 -93 -4 -18 -12 -35 -17 -38 -5 -4 -9 -16 -9 -28 0 -13 -6 -31 -13 -42 -18 -27 -47 -106 -47 -129 0 -10 -6 -30 -14 -44 -14 -29 -46 -155 -46 -184 0 -10 -6 -37 -13 -60 -33 -103 -73 -322 -89 -478 -28 -277 -9 -887 31 -1020 6 -19 11 -53 11 -75 0 -23 5 -46 11 -52 6 -6 15 -37 19 -69 5 -33 16 -88 25 -124 9 -36 21 -90 26 -120 6 -30 15 -64 21 -75 6 -11 15 -33 19 -50 4 -16 17 -55 29 -85 12 -30 24 -64 27 -75 3 -11 16 -44 29 -73 13 -29 24 -58 24 -64 0 -6 10 -32 21 -57 12 -25 28 -59 35 -76 34 -79 87 -186 95 -191 5 -3 9 -14 9 -25 0 -11 7 -22 15 -25 8 -4 15 -12 15 -19 0 -16 29 -73 47 -93 7 -7 13 -20 13 -28 0 -8 5 -14 10 -14 6 0 10 -5 10 -10 0 -6 16 -33 35 -60 19 -27 35 -52 35 -54 0 -5 85 -130 101 -150 38 -46 49 -60 49 -65 0 -3 14 -22 30 -41 16 -19 33 -40 37 -45 111 -146 490 -535 522 -535 3 0 14 -8 22 -17 33 -38 269 -223 283 -223 7 0 67 -40 76 -51 3 -3 21 -14 40 -25 19 -10 57 -34 84 -52 60 -42 135 -82 151 -82 7 0 17 -6 23 -13 16 -18 257 -137 279 -137 6 0 16 -7 23 -15 7 -8 25 -15 40 -15 15 0 33 -7 40 -15 7 -8 22 -15 34 -15 12 0 31 -7 42 -15 10 -8 29 -15 41 -15 12 0 25 -4 28 -10 3 -5 14 -10 23 -10 10 0 35 -9 56 -20 21 -10 58 -22 82 -26 24 -3 44 -10 44 -15 0 -4 23 -11 50 -15 28 -4 53 -11 56 -15 3 -5 20 -9 38 -9 19 0 50 -7 69 -15 20 -8 51 -15 70 -15 18 0 38 -5 44 -11 6 -6 42 -13 80 -16 37 -3 76 -9 86 -15 60 -32 727 -60 917 -39 52 6 144 16 205 22 60 6 114 14 120 19 6 5 41 10 78 12 37 2 72 9 79 16 7 7 27 12 44 12 18 0 45 5 61 11 15 7 48 15 73 20 71 12 144 31 155 39 6 4 26 11 45 15 36 7 125 37 157 53 30 15 86 34 118 39 17 3 34 12 38 19 4 8 16 14 25 14 9 0 42 12 72 26 76 36 111 52 140 64 14 5 33 14 43 20 9 5 25 15 35 20 9 6 23 12 30 15 32 13 39 16 67 35 17 11 39 24 50 29 11 5 44 25 74 45 29 20 56 36 60 36 4 0 16 7 26 15 11 9 55 38 98 66 43 28 89 62 104 75 14 13 29 24 34 24 4 0 14 7 23 15 8 9 37 32 63 52 26 20 52 42 56 50 4 7 12 13 18 13 15 0 62 43 254 233 99 98 196 199 215 225 19 25 42 54 50 62 33 36 67 77 90 110 14 19 31 41 38 48 6 7 12 17 12 21 0 4 18 27 40 52 22 24 40 49 40 55 0 6 8 20 18 32 10 11 27 37 37 56 11 20 23 36 27 36 5 0 8 5 8 11 0 6 22 48 48 93 27 44 62 108 79 141 87 167 110 216 127 261 18 50 51 126 65 154 5 9 12 31 16 50 4 19 11 40 14 45 8 10 23 54 54 150 16 49 39 145 53 215 3 19 10 40 14 45 4 6 10 26 12 45 3 19 10 55 16 80 25 99 41 199 47 285 8 116 14 145 31 145 12 0 14 59 14 346 0 228 -3 343 -10 339 -17 -10 -27 35 -35 150 -4 60 -12 123 -17 140 -5 16 -13 55 -18 85 -8 53 -17 91 -46 195 -13 47 -35 141 -49 212 -4 18 -11 35 -16 38 -5 4 -9 19 -9 35 0 16 -4 31 -9 35 -5 3 -12 19 -16 36 -4 17 -13 42 -21 57 -8 15 -14 32 -14 39 0 6 -13 41 -30 76 -16 36 -30 70 -30 76 0 6 -4 19 -9 29 -5 9 -47 94 -93 187 -45 94 -92 184 -104 200 -13 17 -34 53 -48 80 -34 64 -45 82 -78 126 -16 20 -28 40 -28 44 0 3 -55 79 -122 168 -130 174 -256 310 -504 548 -88 85 -392 320 -449 349 -17 8 -43 25 -58 37 -15 12 -51 34 -80 48 -28 15 -54 30 -57 33 -7 9 -40 30 -67 41 -11 6 -24 15 -28 20 -3 6 -16 11 -28 11 -13 0 -30 9 -40 20 -10 12 -22 18 -28 14 -6 -3 -18 1 -27 9 -21 18 -197 102 -234 111 -16 3 -28 11 -28 16 0 6 -13 10 -29 10 -16 0 -34 7 -41 15 -7 8 -20 15 -30 15 -10 0 -51 13 -91 29 -41 16 -90 33 -109 36 -19 4 -40 11 -46 16 -5 5 -27 10 -49 13 -21 3 -43 10 -48 15 -6 6 -26 11 -44 11 -19 0 -50 7 -70 15 -19 8 -50 15 -68 15 -17 0 -35 3 -39 8 -14 14 -344 65 -463 71 -7 1 -13 8 -13 16 0 13 -44 15 -333 15 -290 0 -333 -2 -342 -16z m613 -74 c95 -5 203 -14 240 -20 177 -29 311 -54 350 -66 23 -8 54 -14 67 -14 13 0 26 -4 29 -9 3 -5 23 -12 43 -16 40 -7 124 -31 158 -45 11 -4 52 -18 90 -30 39 -11 79 -25 90 -30 11 -5 43 -18 70 -29 132 -51 340 -152 466 -228 59 -34 110 -63 113 -63 4 0 12 -5 19 -11 11 -9 111 -77 155 -104 19 -12 17 -11 107 -77 39 -29 81 -62 95 -75 14 -13 28 -23 31 -23 3 0 17 -10 31 -22 13 -13 60 -54 104 -92 147 -130 326 -317 435 -456 24 -30 46 -57 49 -60 4 -3 30 -36 58 -75 68 -91 65 -89 77 -107 27 -44 95 -144 104 -155 6 -7 11 -15 11 -18 0 -3 26 -50 58 -103 73 -121 158 -296 227 -465 14 -34 30 -71 35 -82 5 -11 18 -51 30 -90 12 -38 26 -78 31 -87 8 -17 16 -42 39 -138 6 -25 13 -52 17 -60 15 -35 50 -196 73 -335 6 -38 15 -95 21 -125 5 -30 15 -157 21 -282 22 -452 -23 -889 -127 -1238 -9 -30 -20 -68 -24 -85 -10 -35 -76 -231 -92 -272 -22 -55 -28 -69 -53 -126 -95 -211 -103 -228 -134 -280 -12 -20 -39 -68 -59 -105 -30 -55 -84 -143 -165 -266 -41 -61 -232 -310 -278 -361 -102 -113 -355 -360 -430 -420 -41 -33 -77 -62 -80 -65 -39 -41 -373 -273 -410 -285 -11 -3 -20 -11 -20 -16 0 -5 -5 -9 -11 -9 -6 0 -44 -19 -83 -43 -72 -43 -194 -104 -301 -152 -92 -40 -98 -43 -135 -58 -19 -8 -48 -19 -63 -26 -35 -14 -218 -75 -272 -91 -205 -59 -299 -80 -555 -122 -122 -20 -172 -22 -510 -22 -254 -1 -406 3 -470 12 -148 20 -330 52 -384 68 -26 8 -57 14 -67 14 -10 0 -28 4 -41 9 -13 6 -57 20 -98 31 -258 75 -383 124 -635 246 -139 68 -337 179 -370 206 -5 5 -32 24 -60 42 -76 50 -189 128 -195 135 -3 3 -52 44 -110 91 -58 47 -112 92 -121 100 -219 207 -365 363 -494 528 -5 7 -15 18 -21 25 -6 7 -32 43 -58 80 -25 37 -66 96 -90 132 -47 68 -105 163 -155 255 -68 125 -201 403 -201 421 0 5 -4 17 -10 27 -24 45 -76 196 -125 367 -9 33 -20 71 -25 85 -8 24 -21 83 -54 250 -17 80 -29 171 -47 340 -13 127 -7 730 9 810 6 30 16 89 21 130 27 195 71 373 156 635 18 55 38 114 45 130 7 17 16 39 21 50 63 157 156 350 216 451 24 39 43 77 43 83 0 6 4 11 9 11 5 0 12 9 16 20 11 35 179 277 286 412 107 135 353 392 494 516 44 38 139 113 210 166 72 53 135 100 140 104 6 4 28 19 50 32 22 13 42 28 43 32 2 4 8 8 12 8 5 0 28 13 52 29 85 57 323 180 493 255 33 15 68 31 77 36 10 6 23 10 29 10 6 0 25 6 42 14 38 17 219 77 302 101 33 9 71 20 85 25 14 5 41 12 60 15 19 3 46 10 60 15 22 7 132 27 340 61 152 25 510 34 778 19z"/> <path d="M3680 7553 c-158 -9 -296 -26 -500 -62 -126 -22 -461 -115 -512 -142 -10 -5 -23 -9 -28 -9 -11 0 -91 -33 -122 -50 -10 -6 -22 -10 -28 -10 -30 0 -337 -154 -495 -248 -55 -33 -256 -169 -280 -189 -5 -5 -50 -39 -98 -76 -126 -97 -327 -287 -486 -461 -97 -105 -360 -468 -392 -540 -5 -12 -25 -48 -45 -81 -55 -96 -194 -384 -194 -404 0 -6 -4 -19 -10 -29 -40 -73 -138 -380 -171 -537 -32 -149 -41 -201 -55 -290 -51 -347 -44 -872 15 -1165 21 -101 44 -207 53 -240 57 -221 68 -256 98 -335 4 -11 22 -58 39 -105 18 -47 39 -98 46 -115 8 -16 24 -52 35 -80 79 -181 271 -519 302 -533 5 -2 8 -8 8 -14 0 -5 8 -20 18 -33 9 -12 24 -33 32 -45 8 -13 26 -37 40 -54 15 -17 57 -71 95 -121 121 -157 437 -466 600 -587 5 -5 30 -24 55 -43 25 -19 50 -39 55 -43 32 -25 249 -165 300 -193 170 -96 324 -171 460 -224 39 -15 84 -33 102 -41 17 -8 36 -14 42 -14 6 0 19 -4 29 -9 25 -13 96 -36 187 -61 44 -12 94 -25 111 -31 16 -5 52 -13 80 -19 27 -6 83 -17 124 -26 114 -24 250 -42 405 -55 160 -13 651 -6 730 10 28 6 84 15 125 20 66 9 117 19 265 50 117 25 397 108 475 142 14 6 39 17 55 24 17 7 71 30 120 51 540 229 1078 650 1433 1122 147 195 236 330 314 477 79 150 168 338 168 355 0 6 4 18 10 28 19 35 50 111 50 125 0 7 3 17 7 21 4 4 14 26 21 49 28 90 60 205 76 272 10 39 22 86 27 105 20 70 53 273 70 430 15 132 15 612 1 745 -16 150 -42 303 -81 475 -8 39 -20 82 -63 230 -30 104 -79 241 -132 365 -33 75 -153 316 -186 370 -20 33 -39 67 -43 75 -4 8 -16 29 -27 45 -11 17 -25 40 -31 53 -7 12 -16 22 -21 22 -4 0 -8 4 -8 9 0 14 -53 92 -144 211 -44 58 -83 107 -86 110 -3 3 -36 41 -74 85 -89 102 -229 242 -331 331 -44 38 -82 72 -85 75 -24 29 -391 289 -407 289 -4 0 -14 6 -22 14 -32 28 -331 183 -466 241 -113 49 -180 75 -195 75 -9 0 -20 3 -24 7 -9 9 -80 32 -256 83 -131 38 -280 68 -490 100 -152 24 -487 35 -690 23z m589 -107 c40 -21 89 -71 102 -104 20 -51 5 -416 -21 -513 -16 -58 -78 -114 -148 -135 -48 -14 -65 -14 -112 -4 -70 16 -101 32 -133 69 -29 34 -37 31 -37 -16 l0 -33 -57 0 c-32 0 -74 -3 -93 -5 -49 -8 -64 6 -70 67 -4 45 -8 53 -25 53 -17 0 -21 -8 -25 -60 -5 -58 -5 -59 -40 -66 -19 -4 -65 -11 -102 -14 -55 -6 -69 -4 -74 8 -6 15 9 319 29 587 l12 155 75 12 c41 6 107 12 146 12 l70 1 16 -57 c25 -88 66 -272 78 -349 13 -81 30 -144 40 -144 4 0 10 82 13 183 7 199 19 254 65 304 30 32 68 58 97 66 39 11 160 0 194 -17z m-1057 -101 c4 -16 14 -57 23 -90 54 -199 68 -254 106 -390 39 -145 46 -194 29 -205 -8 -5 -33 -11 -56 -15 -24 -3 -46 -10 -49 -16 -12 -19 -61 -10 -73 14 -6 12 -25 45 -41 72 -17 28 -35 60 -41 73 -11 25 -30 30 -30 7 0 -8 6 -29 14 -47 31 -71 44 -127 32 -143 -6 -8 -49 -24 -96 -36 -47 -12 -118 -37 -158 -55 -40 -19 -79 -34 -87 -34 -8 0 -26 22 -40 49 -29 59 -38 66 -55 45 -11 -12 -10 -21 3 -50 29 -61 23 -81 -30 -104 -27 -11 -61 -27 -76 -35 -50 -26 -74 -20 -85 23 l-10 37 -1 -39 c-1 -54 -38 -104 -106 -147 -31 -18 -92 -58 -137 -87 -45 -29 -86 -51 -92 -49 -14 5 -77 97 -161 237 -73 122 -158 257 -206 328 -16 23 -29 49 -29 56 0 12 56 49 185 123 81 46 114 58 160 58 76 0 79 -3 237 -243 15 -24 28 -45 28 -48 0 -3 8 -18 19 -32 10 -15 31 -51 46 -79 15 -29 31 -53 36 -53 13 0 12 7 -20 110 -30 94 -53 170 -86 285 -9 33 -27 91 -40 129 -23 69 -21 106 6 106 10 0 46 15 166 71 34 16 68 26 75 23 7 -2 32 -37 56 -77 23 -40 64 -106 91 -147 27 -41 82 -130 123 -197 40 -68 76 -123 81 -123 12 0 8 39 -8 69 -8 16 -17 48 -21 72 -4 24 -10 49 -14 54 -4 6 -11 26 -15 45 -4 19 -10 49 -15 65 -24 88 -40 145 -54 191 -8 27 -18 68 -22 91 l-6 40 49 16 c27 9 68 19 90 23 41 6 42 6 68 -42 14 -27 34 -62 45 -79 11 -16 24 -40 29 -52 5 -11 15 -24 20 -28 16 -9 14 28 -3 67 -25 56 -47 140 -42 154 7 18 93 43 141 41 35 -2 40 -5 47 -32z m1962 -104 c3 -5 17 -12 32 -15 43 -11 102 -54 133 -97 32 -43 33 -65 8 -157 -17 -64 -27 -68 -95 -43 -31 12 -67 29 -79 37 -26 16 -30 53 -11 84 18 28 -3 48 -26 25 -29 -29 -20 -88 20 -140 77 -102 94 -138 94 -203 0 -100 -56 -217 -118 -246 -36 -18 -132 -21 -160 -6 -9 5 -34 17 -55 26 -46 20 -114 86 -128 123 -6 14 -8 44 -4 66 6 43 38 141 48 152 8 8 84 -15 112 -34 39 -26 71 -11 42 19 -29 30 -76 116 -82 151 -14 75 44 201 115 249 27 18 144 25 154 9z m370 -167 c124 -71 208 -118 239 -134 20 -10 27 -21 27 -41 0 -15 -4 -30 -9 -34 -6 -3 -20 -26 -32 -50 -12 -25 -26 -45 -31 -45 -5 0 -26 11 -49 25 -37 24 -59 26 -59 5 0 -5 -17 -38 -38 -72 -21 -35 -49 -85 -63 -113 -13 -27 -26 -52 -30 -55 -3 -3 -16 -25 -29 -50 -75 -143 -93 -171 -110 -183 -11 -6 -38 5 -97 40 -46 26 -83 53 -83 58 0 6 27 57 60 113 33 57 60 105 60 107 0 2 20 38 45 79 25 42 45 78 45 81 0 2 14 27 31 56 33 57 32 75 -6 85 -37 9 -42 46 -14 107 24 52 36 67 53 67 5 0 46 -21 90 -46z m499 -317 c34 -29 81 -66 105 -82 52 -37 51 -46 -19 -161 -27 -45 -49 -87 -49 -93 0 -6 -4 -11 -9 -11 -5 0 -14 -12 -20 -27 -6 -16 -26 -55 -45 -88 -19 -33 -41 -71 -49 -85 -8 -14 -38 -69 -68 -122 -58 -106 -77 -118 -115 -77 -10 11 -40 36 -66 56 -27 19 -48 42 -48 50 0 8 14 33 31 54 55 70 14 97 -44 29 -19 -22 -39 -40 -46 -40 -7 0 -45 26 -86 58 -54 41 -75 63 -75 80 0 12 6 22 13 22 6 1 122 111 257 245 135 135 251 245 258 245 7 0 41 -24 75 -53z m-4383 -144 c29 -37 234 -258 438 -470 12 -13 22 -31 22 -41 0 -20 -108 -122 -129 -122 -9 0 -57 27 -108 60 -50 33 -97 60 -103 60 -7 0 25 -37 69 -82 45 -45 81 -88 81 -96 0 -18 -101 -111 -121 -112 -8 0 -30 17 -48 38 -19 20 -90 98 -160 172 -69 74 -151 162 -181 194 -30 32 -67 70 -82 84 -16 14 -28 33 -28 41 0 23 103 121 126 121 11 0 30 -9 44 -20 14 -11 30 -20 35 -20 6 0 32 -16 59 -35 92 -65 90 -40 -4 53 -38 38 -70 74 -70 80 0 17 108 122 124 122 8 0 24 -12 36 -27z m2505 -43 c61 -5 135 -15 165 -21 188 -36 328 -70 375 -90 11 -5 49 -18 85 -30 36 -12 70 -25 75 -29 6 -3 33 -15 60 -25 60 -22 220 -100 293 -143 29 -18 55 -32 57 -32 5 0 229 -151 235 -159 3 -4 37 -31 75 -61 87 -67 337 -319 402 -403 26 -34 50 -64 53 -67 28 -22 222 -337 271 -440 40 -82 105 -238 123 -295 9 -27 20 -59 25 -70 20 -47 54 -188 90 -375 11 -57 28 -222 38 -375 5 -89 -18 -404 -37 -495 -45 -216 -75 -334 -101 -410 -179 -517 -472 -930 -905 -1277 -130 -104 -397 -268 -534 -326 -19 -9 -57 -25 -85 -37 -27 -12 -59 -25 -70 -30 -11 -5 -49 -18 -85 -30 -36 -11 -74 -24 -85 -29 -52 -22 -216 -60 -395 -90 -36 -6 -141 -16 -233 -22 -254 -15 -488 2 -747 57 -89 19 -234 60 -295 84 -11 4 -58 22 -105 40 -513 199 -963 570 -1281 1055 -78 119 -176 306 -220 419 -11 28 -26 65 -34 83 -8 17 -15 36 -15 42 0 6 -4 19 -9 29 -32 64 -77 243 -120 479 -33 179 -33 617 0 798 38 207 70 348 89 385 4 8 17 48 30 89 12 40 29 85 36 100 8 14 14 29 14 33 0 22 91 205 162 326 26 45 48 85 48 87 0 5 63 98 71 105 3 3 23 30 44 60 21 30 41 57 44 60 3 3 31 37 62 75 31 39 112 125 180 192 274 270 554 452 909 592 30 12 64 26 75 31 21 9 85 29 170 54 45 13 133 33 292 65 28 6 114 16 190 22 76 6 140 13 143 16 7 7 234 -3 375 -17z m2282 -171 c76 -77 140 -148 141 -156 4 -15 -92 -113 -110 -113 -5 0 -24 17 -43 37 l-34 37 -138 -134 c-76 -74 -166 -163 -201 -197 -35 -35 -71 -62 -80 -62 -9 1 -46 33 -82 71 l-64 69 209 204 210 204 -32 33 c-18 19 -33 39 -33 46 0 19 83 100 102 101 9 1 79 -62 155 -140z m-5154 -276 c51 -43 113 -94 137 -113 24 -19 74 -60 111 -90 36 -30 100 -82 142 -115 42 -33 76 -67 76 -76 1 -8 -10 -26 -24 -39 -13 -12 -36 -40 -51 -62 -15 -21 -38 -41 -50 -44 -14 -4 -24 -14 -24 -24 0 -10 -4 -20 -9 -22 -5 -1 -22 -28 -38 -58 -28 -52 -58 -74 -72 -53 -9 13 -127 83 -140 83 -6 0 -11 4 -11 9 0 11 -39 26 -46 18 -3 -3 42 -39 100 -82 107 -79 112 -86 81 -125 -7 -8 -16 -25 -19 -37 -4 -11 -14 -24 -23 -28 -14 -5 -99 27 -210 77 -11 6 -27 8 -35 5 -9 -3 -5 -8 12 -16 14 -7 52 -27 85 -46 33 -19 72 -40 88 -46 28 -11 38 -51 17 -64 -6 -4 -22 -29 -36 -56 -34 -69 -44 -72 -109 -29 -16 11 -37 23 -45 27 -8 4 -58 33 -111 65 -53 32 -99 58 -102 58 -10 0 -306 181 -312 191 -4 5 17 47 44 93 28 46 51 89 51 94 0 6 9 17 21 26 23 16 37 12 153 -45 40 -20 63 -26 69 -20 7 7 4 13 -9 17 -10 4 -21 10 -24 14 -3 3 -35 27 -72 53 -38 27 -68 54 -68 61 0 7 27 58 61 114 42 71 67 102 79 102 11 0 38 -13 62 -29 24 -16 70 -43 103 -61 33 -18 98 -54 145 -82 47 -27 92 -53 100 -58 8 -5 52 -32 98 -61 120 -74 121 -49 2 41 -67 51 -233 183 -251 200 -8 8 -52 44 -97 79 -87 67 -93 80 -53 120 9 9 32 38 50 64 19 26 40 47 48 47 7 0 55 -35 106 -77z m5402 0 c9 -10 52 -67 96 -127 85 -116 90 -134 41 -160 -15 -8 -37 -24 -50 -36 -28 -26 -57 -19 -76 19 -27 51 -41 56 -80 26 -46 -35 -50 -49 -21 -77 39 -37 32 -68 -25 -105 -28 -18 -56 -33 -63 -33 -14 0 -47 35 -47 49 0 5 -7 14 -15 21 -11 10 -23 6 -59 -20 -25 -18 -47 -38 -50 -45 -3 -8 11 -34 31 -59 19 -25 33 -49 31 -55 -4 -13 -110 -91 -124 -91 -13 0 -204 255 -204 273 0 7 21 26 48 44 26 17 113 80 195 139 81 60 178 130 215 156 37 26 78 59 92 72 30 30 45 32 65 9z m483 -826 c10 -23 27 -62 37 -85 l19 -44 -25 -19 c-13 -10 -33 -21 -44 -24 -25 -7 -88 -32 -135 -52 -19 -8 -48 -21 -65 -28 -46 -20 -174 -71 -229 -92 -44 -16 -66 -36 -54 -49 5 -4 71 19 143 51 17 7 48 19 70 28 86 32 271 110 297 123 40 21 56 17 72 -18 62 -138 65 -149 44 -165 -7 -5 -41 -20 -76 -33 -34 -12 -65 -27 -68 -31 -3 -5 -12 -9 -20 -9 -9 0 -41 -12 -72 -26 -61 -28 -195 -79 -252 -96 -19 -5 -39 -14 -45 -19 -5 -5 -30 -9 -55 -9 -94 0 -182 94 -203 216 -8 46 -8 72 1 101 23 76 68 108 247 177 39 15 79 31 90 36 11 5 43 18 70 30 28 12 59 25 70 30 69 30 150 58 157 54 5 -3 16 -24 26 -47z m197 -546 c3 -20 10 -51 16 -69 6 -17 8 -40 5 -50 -3 -9 -41 -35 -83 -56 -43 -22 -91 -48 -108 -59 l-30 -19 35 5 c19 3 68 12 108 21 93 21 107 14 116 -56 3 -29 9 -63 12 -75 5 -18 0 -24 -27 -36 -19 -7 -58 -17 -87 -20 -29 -3 -68 -11 -85 -16 -18 -5 -61 -15 -97 -21 -99 -19 -202 -38 -287 -55 -43 -9 -95 -18 -115 -22 -40 -6 -38 -9 -52 75 -4 17 -9 46 -12 62 -8 39 12 62 74 85 26 10 54 23 62 30 8 7 25 16 38 19 12 4 22 12 22 17 0 13 -31 11 -76 -5 -64 -22 -130 -29 -141 -14 -5 7 -16 46 -23 87 -14 83 -10 91 49 91 33 0 57 5 248 50 45 11 92 20 104 20 13 0 36 4 53 9 31 10 108 25 196 39 66 11 79 5 85 -37z m-6830 -15 c39 -8 111 -21 160 -31 50 -9 122 -23 160 -30 39 -8 99 -19 135 -25 36 -7 89 -19 118 -27 l54 -15 -7 -61 c-4 -33 -13 -75 -21 -92 -13 -33 -13 -33 -107 -40 -150 -11 -155 -27 -13 -44 43 -5 83 -14 88 -19 16 -16 -12 -161 -33 -167 -21 -7 -108 7 -369 60 -36 7 -105 20 -155 29 -180 33 -200 39 -203 64 -2 13 1 28 6 35 5 7 13 33 16 59 4 25 13 52 21 58 8 6 60 16 117 21 56 5 107 14 112 19 5 5 -17 11 -50 15 -33 3 -83 11 -111 17 -52 11 -53 12 -53 47 0 31 11 84 25 129 5 15 21 15 110 -2z m6923 -613 c7 -64 8 -101 2 -107 -12 -12 -83 -21 -270 -35 -74 -6 -178 -15 -230 -20 -234 -24 -229 -24 -240 4 -15 40 -24 181 -12 189 10 6 87 13 442 42 107 8 197 17 199 20 2 2 25 4 51 4 l47 0 11 -97z m-6819 22 c16 -8 31 -21 34 -30 8 -19 33 -20 44 -2 4 8 22 22 40 32 29 17 42 17 172 8 77 -6 145 -14 151 -18 12 -7 3 -164 -10 -179 -5 -4 -76 -9 -159 -10 -199 -1 -206 -19 -11 -26 80 -3 151 -9 158 -13 8 -6 12 -38 12 -102 l0 -95 -27 -7 c-16 -3 -180 -2 -367 4 -276 9 -341 14 -353 26 -13 13 -13 33 -1 170 16 169 28 199 92 238 40 24 182 27 225 4z m6829 -264 c11 -7 12 -25 2 -102 -6 -51 -15 -98 -20 -105 -6 -6 -61 -14 -132 -18 -67 -4 -124 -9 -127 -11 -10 -11 12 -17 96 -26 48 -5 104 -12 123 -17 l35 -8 3 -101 c4 -134 8 -131 -179 -92 -79 17 -164 35 -189 39 -25 5 -76 16 -115 24 -38 8 -97 20 -130 26 -103 20 -133 30 -138 44 -5 14 8 203 18 264 3 17 9 32 13 32 4 0 52 5 107 10 55 6 196 17 314 25 118 8 217 17 219 20 9 8 86 5 100 -4z m-6391 -223 c9 -12 30 -157 40 -279 l5 -56 -114 -16 c-249 -35 -540 -70 -598 -71 l-35 -1 -14 105 c-7 58 -14 132 -15 165 l-1 59 74 15 c70 15 74 14 87 -4 8 -10 14 -36 14 -56 0 -47 9 -53 66 -44 l44 6 -6 54 c-7 53 -6 54 22 60 16 3 48 11 71 17 56 14 73 0 73 -58 0 -23 4 -45 8 -48 5 -3 34 -2 66 1 l58 6 -7 62 c-7 71 -6 73 63 85 71 12 89 11 99 -2z m5713 -199 c19 -5 55 -14 80 -19 45 -9 306 -67 430 -97 36 -8 78 -17 93 -20 27 -5 28 -8 24 -42 -3 -20 -12 -65 -21 -101 -9 -36 -21 -91 -27 -123 -16 -80 -26 -84 -139 -51 -45 13 -49 21 -34 70 8 26 12 50 9 53 -8 13 -83 34 -99 28 -10 -4 -16 -19 -16 -41 0 -40 -25 -70 -49 -60 -9 3 -38 12 -66 18 -54 13 -54 14 -44 100 4 28 1 30 -49 43 -67 17 -78 10 -87 -58 -4 -30 -13 -53 -22 -56 -19 -8 -139 26 -153 42 -8 9 -8 20 -2 32 6 10 15 41 21 68 50 240 45 225 84 225 18 0 48 -5 67 -11z m-5623 -271 c9 -15 31 -105 39 -158 l6 -36 -84 -21 c-45 -12 -144 -37 -218 -57 -74 -19 -155 -41 -180 -47 -64 -17 -72 -26 -58 -72 15 -49 3 -62 -79 -80 -62 -15 -83 -10 -83 20 0 7 -4 21 -9 31 -5 9 -14 40 -21 67 -7 28 -25 99 -41 159 -34 124 -30 138 39 150 92 16 96 15 108 -34 13 -52 19 -53 119 -26 33 10 80 22 105 28 25 5 49 14 55 19 5 5 18 9 29 9 18 0 84 17 171 46 52 16 92 17 102 2z m5514 -122 c158 -58 286 -107 304 -116 18 -9 193 -76 275 -106 41 -14 48 -34 27 -78 -17 -35 -27 -58 -58 -136 -35 -87 -70 -133 -121 -160 l-47 -25 -58 20 c-108 35 -163 71 -163 107 0 20 -34 25 -46 7 -4 -7 -24 -9 -48 -7 l-41 4 -28 -55 c-15 -31 -38 -69 -51 -84 l-23 -29 -57 27 c-82 39 -123 15 -46 -27 51 -27 71 -23 186 33 96 48 108 51 154 45 95 -13 212 -103 225 -173 20 -106 -115 -293 -210 -293 -39 0 -144 46 -152 67 -8 20 60 145 84 154 12 4 31 2 48 -7 35 -18 55 -18 55 0 0 33 -71 54 -110 32 -158 -86 -166 -89 -215 -90 -89 -2 -234 88 -266 165 -33 81 62 263 155 299 27 10 28 12 12 29 -21 23 -21 23 10 100 37 93 39 95 104 70 30 -11 66 -24 80 -29 67 -23 100 -37 106 -43 10 -10 54 -9 54 2 0 12 -21 28 -50 35 -24 7 -73 25 -135 51 -16 7 -40 16 -51 19 -12 4 -28 14 -37 24 -14 16 -14 22 9 77 13 33 24 65 24 72 0 10 26 43 34 43 2 0 32 -11 67 -24z m-5442 -240 c41 -22 106 -97 130 -151 27 -60 28 -149 3 -186 -29 -43 -55 -65 -115 -99 -62 -35 -76 -35 -94 1 -21 45 -53 128 -53 138 0 6 27 24 60 41 60 30 79 60 39 60 -32 0 -84 -36 -98 -67 -7 -15 -15 -50 -18 -78 -11 -114 -49 -186 -118 -223 -52 -29 -119 -52 -148 -52 -83 0 -166 94 -198 223 -13 54 -1 116 29 146 28 29 124 83 137 77 11 -4 23 -26 67 -127 15 -34 15 -37 -4 -53 -11 -9 -30 -21 -44 -26 -13 -5 -24 -14 -24 -19 0 -36 73 -13 95 30 8 15 15 51 15 79 0 61 31 154 62 188 44 47 168 109 221 111 15 1 40 -5 56 -13z m249 -392 c15 -25 53 -86 85 -135 31 -48 57 -95 57 -103 0 -8 -54 -48 -119 -88 -66 -40 -170 -104 -233 -142 -62 -39 -146 -92 -187 -119 -80 -54 -91 -54 -121 -4 -8 14 -37 62 -65 107 -67 108 -74 123 -70 130 2 3 28 23 59 44 64 44 85 42 109 -9 23 -48 39 -52 82 -20 41 32 42 38 15 72 -34 43 -26 64 38 101 63 37 75 35 102 -14 19 -33 51 -42 70 -19 7 8 18 15 25 15 6 0 20 9 29 19 17 18 17 21 -1 48 -10 15 -24 33 -31 38 -16 13 -6 65 12 65 6 0 27 14 46 30 49 41 66 38 98 -16z m4859 -184 c50 -38 94 -70 97 -70 2 0 33 -19 68 -43 35 -24 86 -59 113 -78 28 -19 52 -36 55 -39 3 -4 37 -27 76 -53 39 -26 76 -53 82 -60 8 -9 0 -27 -29 -67 -21 -30 -43 -65 -48 -76 -20 -46 -37 -40 -183 68 -10 7 -47 33 -83 58 -36 25 -94 65 -129 90 -35 25 -74 52 -86 60 -12 8 -41 29 -64 45 -23 17 -50 35 -61 41 -34 19 -29 49 19 114 25 34 46 66 46 71 0 24 44 3 127 -61z m-4567 -235 c41 -41 78 -75 83 -75 4 0 7 -13 7 -30 0 -16 -5 -30 -10 -30 -6 0 -15 -10 -19 -22 -5 -13 -35 -54 -65 -92 -31 -38 -56 -73 -56 -78 0 -14 14 -9 40 15 54 50 174 147 181 147 11 0 179 -168 179 -179 0 -5 -6 -16 -13 -23 -7 -7 -85 -107 -172 -223 -88 -115 -164 -215 -170 -221 -5 -6 -26 -34 -45 -62 -19 -29 -43 -52 -52 -52 -23 0 -138 116 -138 140 0 10 6 23 13 27 6 4 37 37 67 73 30 36 60 70 66 75 6 6 20 23 30 39 18 28 18 29 1 20 -10 -6 -62 -49 -117 -97 -54 -48 -106 -87 -116 -87 -21 0 -154 127 -154 147 0 7 8 20 18 30 10 10 41 45 68 78 58 70 94 112 113 132 27 28 1 25 -27 -3 -17 -16 -54 -49 -83 -74 -29 -25 -70 -60 -90 -77 -20 -18 -44 -33 -53 -33 -18 0 -146 120 -146 137 0 6 24 28 53 49 28 20 57 42 62 48 6 6 32 29 60 51 27 22 55 45 61 50 6 6 29 24 50 42 22 18 93 77 159 132 66 55 125 100 130 100 6 0 44 -33 85 -74z m4361 -28 c224 -212 323 -302 335 -305 7 -2 23 11 35 27 26 35 57 40 80 13 8 -9 26 -26 40 -37 40 -32 41 -49 6 -87 -18 -18 -81 -86 -141 -151 -81 -87 -114 -116 -127 -112 -19 6 -109 91 -109 104 0 4 14 20 30 36 17 16 30 34 30 40 0 14 -348 346 -386 368 -27 16 -13 49 48 113 34 35 67 64 73 64 5 0 44 -33 86 -73z m-342 -229 c112 -133 149 -171 208 -209 37 -24 122 -81 190 -126 67 -46 127 -83 133 -83 5 0 10 -13 10 -30 0 -17 -5 -30 -12 -30 -7 0 -34 -20 -60 -45 -54 -51 -67 -54 -94 -24 -34 38 -115 102 -121 96 -3 -4 5 -21 19 -39 60 -80 89 -158 58 -158 -4 0 -30 -20 -58 -45 -51 -46 -92 -59 -92 -29 0 9 -7 28 -14 42 -16 29 -76 161 -76 167 0 2 -22 51 -50 110 -45 95 -82 149 -160 235 -14 14 -34 37 -44 49 l-20 22 65 59 c35 32 72 59 82 60 9 0 26 -10 36 -22z m-3594 -613 c30 -19 66 -40 79 -45 14 -5 29 -18 35 -28 16 -30 -10 -56 -81 -82 -35 -13 -67 -27 -73 -31 -5 -4 -21 -9 -34 -11 -39 -5 -35 -23 8 -43 52 -23 75 -48 67 -73 -11 -34 -43 -33 -97 3 -27 19 -72 46 -99 61 -28 15 -50 33 -50 40 0 31 84 79 185 106 22 6 42 12 44 14 9 8 -23 33 -50 39 -33 7 -49 46 -29 70 18 22 34 19 95 -20z m3360 -111 c1 -97 17 -162 45 -179 17 -10 11 -44 -9 -55 -34 -18 -61 -12 -71 16 -21 53 -53 86 -116 115 -35 17 -67 35 -70 41 -4 6 -13 -3 -20 -21 -7 -17 -19 -31 -26 -31 -40 -1 -40 -17 6 -112 25 -52 46 -103 46 -112 0 -20 -42 -41 -65 -33 -8 4 -18 15 -22 24 -3 10 -17 43 -31 73 -13 30 -28 65 -33 78 -5 12 -15 22 -23 22 -27 0 -66 -19 -66 -33 0 -7 16 -50 36 -96 43 -101 43 -135 -3 -139 -27 -3 -34 2 -47 27 -9 16 -16 35 -16 41 0 6 -8 30 -18 53 -10 23 -26 60 -36 83 -25 57 -19 87 19 95 17 4 76 30 133 58 56 28 110 51 121 51 10 0 26 9 36 20 17 19 75 29 75 13 0 -9 56 -43 70 -43 4 0 7 23 7 51 -1 45 3 55 27 76 44 38 51 27 51 -83z m-2026 37 c15 -10 13 -50 -10 -203 -12 -83 -27 -100 -69 -78 -18 10 -20 17 -13 63 13 95 11 102 -19 99 -25 -3 -28 0 -28 27 0 25 7 34 38 50 21 11 44 27 51 35 15 18 29 20 50 7z m642 -31 c4 -14 7 -48 8 -76 1 -42 5 -54 24 -67 l22 -15 -27 -56 c-33 -67 -57 -73 -86 -21 -8 15 -21 20 -54 20 -41 0 -43 2 -46 31 -2 21 10 56 38 110 53 100 58 106 89 102 17 -2 27 -11 32 -28z m-474 10 c38 -14 63 -57 63 -113 0 -68 -10 -102 -39 -137 -22 -27 -34 -33 -70 -34 -35 -1 -47 4 -67 27 -31 36 -30 55 3 68 l26 10 -21 20 c-42 39 -23 137 32 159 29 12 38 12 73 0z m249 -22 c30 -34 44 -74 44 -123 0 -123 -86 -184 -162 -116 -33 29 -33 30 -33 121 0 88 1 93 28 116 37 32 96 33 123 2z m-1473 -37 c31 -16 31 -16 17 -180 -13 -146 -17 -161 -43 -161 -33 0 -57 29 -57 70 0 32 -4 38 -38 53 -47 21 -58 21 -66 2 -10 -28 -86 -16 -86 14 0 17 26 44 124 126 33 28 70 60 83 73 13 13 27 22 31 20 4 -2 19 -10 35 -17z m214 -93 c41 -15 50 -42 34 -103 -6 -24 -11 -51 -11 -61 0 -25 25 -1 58 57 28 51 46 59 95 40 31 -12 39 -34 25 -69 -6 -15 -16 -40 -23 -57 -7 -16 -24 -62 -39 -102 -28 -74 -39 -85 -75 -76 -25 6 -28 48 -6 77 8 11 15 26 15 33 0 19 -20 16 -27 -4 -4 -10 -13 -24 -20 -31 -7 -7 -17 -21 -22 -30 -9 -16 -12 -16 -38 -1 -27 14 -28 19 -26 80 2 63 2 63 -10 27 -17 -52 -39 -72 -71 -64 -27 7 -35 38 -17 74 29 60 53 118 84 205 7 20 28 22 74 5z m2264 -89 c33 -23 36 -40 13 -63 -20 -20 -53 -20 -75 0 -20 18 -52 7 -69 -27 -16 -28 14 -116 41 -124 37 -12 68 3 77 38 7 28 13 32 44 35 42 4 51 -11 38 -59 -12 -40 -35 -66 -82 -90 -49 -25 -71 -24 -117 5 -64 41 -86 80 -86 156 0 70 16 103 65 133 38 23 116 21 151 -4z m-1914 -22 c34 -12 73 -32 87 -44 32 -28 34 -74 7 -109 -16 -20 -18 -31 -10 -53 6 -18 6 -36 0 -52 -25 -60 -61 -77 -126 -60 -119 30 -140 39 -144 56 -3 17 14 81 45 168 8 20 14 47 14 59 0 26 27 58 49 58 9 -1 44 -11 78 -23z m1530 -102 c18 -27 36 -54 40 -60 5 -5 28 -41 52 -80 47 -75 46 -97 -2 -103 -19 -2 -34 5 -54 27 -26 29 -30 31 -65 21 -29 -8 -39 -18 -48 -45 -12 -36 -44 -53 -75 -42 -16 7 -13 68 11 179 8 37 14 78 14 92 0 36 35 68 68 64 20 -2 35 -16 59 -53z m-1190 24 c56 -21 103 -85 103 -139 0 -41 -36 -115 -71 -144 -25 -21 -41 -26 -86 -26 -100 0 -158 58 -155 156 2 73 40 138 92 157 26 9 87 7 117 -4z m906 -23 c59 -27 72 -42 59 -71 -13 -29 -47 -33 -78 -10 -44 33 -104 2 -104 -54 0 -77 46 -124 98 -99 40 20 39 38 -2 38 -34 0 -36 2 -36 34 l0 33 67 6 c37 4 71 3 76 -2 4 -4 9 -34 10 -66 2 -58 2 -59 -40 -88 -87 -62 -200 -41 -239 46 -11 24 -18 62 -18 94 1 44 7 60 31 91 44 54 117 74 176 48z m-606 -18 c9 -11 19 -41 65 -198 6 -19 14 -45 19 -58 17 -44 11 -62 -18 -62 -36 0 -47 8 -64 45 -11 23 -23 31 -54 37 -37 6 -43 4 -73 -29 -25 -26 -38 -34 -55 -29 -12 3 -25 6 -29 6 -15 0 -8 22 35 108 102 204 94 192 131 192 18 0 38 -6 43 -12z m200 -10 c11 -13 30 -41 44 -63 26 -45 48 -70 54 -63 3 3 0 30 -6 61 -14 69 -3 90 45 85 l31 -3 7 -145 c7 -150 3 -170 -32 -170 -36 0 -51 14 -91 82 -22 38 -43 67 -46 64 -3 -3 -6 -38 -7 -78 -1 -71 -2 -73 -28 -76 -18 -2 -30 3 -36 15 -14 26 -23 273 -11 295 13 25 51 23 76 -4z"/> <path d="M4144 7299 c-4 -7 -10 -82 -15 -168 -4 -86 -10 -186 -14 -223 -5 -44 -4 -68 2 -68 28 0 35 37 44 222 5 106 10 204 12 217 2 26 -17 39 -29 20z"/> <path d="M3647 7038 c-6 -44 3 -65 22 -53 7 4 9 20 5 43 -10 55 -20 59 -27 10z"/> <path d="M2575 6830 c-3 -5 1 -23 10 -39 8 -17 15 -36 15 -44 0 -8 7 -20 15 -27 28 -23 28 15 0 69 -29 54 -31 56 -40 41z"/> <path d="M2020 6730 c0 -9 22 -46 115 -190 23 -36 44 -69 46 -75 14 -33 66 -105 76 -105 24 0 12 35 -42 120 -29 47 -73 117 -96 155 -23 39 -49 78 -57 88 -16 18 -42 23 -42 7z"/> <path d="M5010 6773 c0 -12 -7 -43 -16 -69 -8 -25 -13 -53 -10 -61 6 -14 9 -14 26 2 27 25 37 97 16 127 l-16 22 0 -21z"/> <path d="M5833 6424 c-49 -55 -57 -74 -30 -74 15 0 89 108 85 122 -2 6 -27 -16 -55 -48z"/> <path d="M3912 6418 c-16 -16 -15 -58 2 -58 19 0 38 26 34 46 -4 22 -20 28 -36 12z"/> <path d="M3736 6337 c-35 -46 -56 -88 -56 -114 0 -37 17 -26 24 15 7 38 36 82 55 82 7 0 16 -10 20 -22 7 -18 9 -12 8 24 -2 57 -16 61 -51 15z"/> <path d="M3867 6343 c-10 -10 -8 -43 2 -43 9 0 21 24 21 41 0 11 -14 12 -23 2z"/> <path d="M3960 6313 c0 -13 5 -23 10 -23 13 0 13 11 0 30 -8 12 -10 11 -10 -7z"/> <path d="M3818 6269 c-19 -11 -26 -69 -8 -69 10 0 40 52 40 70 0 13 -10 12 -32 -1z"/> <path d="M3980 6260 c0 -29 109 -150 135 -150 8 0 15 9 15 20 0 15 -7 20 -25 20 -18 0 -36 14 -65 51 -22 28 -40 55 -40 60 0 5 -4 9 -10 9 -5 0 -10 -5 -10 -10z"/> <path d="M4082 6243 c2 -5 12 -25 21 -45 16 -35 42 -58 66 -58 6 0 11 4 11 9 0 12 -80 101 -92 101 -5 0 -8 -3 -6 -7z"/> <path d="M3579 6153 c-8 -10 -21 -31 -29 -48 -8 -16 -16 -33 -18 -37 -2 -5 1 -8 7 -8 5 0 13 9 16 20 6 19 35 29 35 13 0 -5 5 -15 10 -23 7 -12 14 -9 40 19 16 19 30 44 30 55 -1 21 -1 21 -12 1 -25 -45 -60 -48 -51 -5 6 34 -6 39 -28 13z"/> <path d="M4190 6118 c0 -7 9 -26 20 -43 38 -57 22 -98 -55 -146 -33 -21 -45 -24 -45 -10 0 5 -4 22 -10 36 -9 25 -11 25 -32 11 -38 -27 -56 -20 -64 22 -17 88 -52 128 -74 82 -42 -89 -76 -132 -122 -156 -32 -17 -152 -19 -197 -3 -28 10 -34 8 -57 -14 -22 -22 -24 -30 -18 -81 4 -31 11 -59 15 -62 5 -3 6 14 3 38 -4 28 -1 49 8 61 12 17 16 16 74 -9 l62 -26 87 32 c48 18 97 30 108 27 32 -8 108 -36 135 -49 20 -10 35 -8 87 10 75 26 91 27 99 7 10 -26 26 -16 26 15 0 19 -5 30 -14 30 -24 0 -29 20 -10 41 20 22 34 139 16 139 -5 0 -12 14 -15 30 -6 29 -27 43 -27 18z"/> <path d="M5230 6095 c-7 -8 -19 -15 -26 -15 -7 0 -49 -16 -91 -36 -220 -101 -223 -102 -298 -134 -69 -29 -101 -44 -165 -73 -53 -24 -97 -44 -188 -83 -40 -17 -43 -21 -38 -48 9 -43 22 -53 44 -33 10 9 22 17 26 17 4 0 31 11 59 24 184 84 278 126 283 126 8 0 135 58 177 81 21 11 42 17 48 13 12 -7 3 -55 -12 -65 -12 -7 -109 -230 -109 -251 0 -9 -4 -19 -9 -22 -5 -4 -12 -24 -16 -46 -4 -22 -11 -42 -16 -46 -5 -3 -9 -15 -9 -27 0 -13 -6 -48 -14 -78 -27 -102 -39 -334 -26 -497 16 -192 25 -214 73 -178 17 14 18 19 3 105 -20 117 -21 333 -1 453 18 106 42 214 54 243 5 11 17 43 26 70 36 102 94 222 153 315 75 118 112 181 112 191 0 14 -26 11 -40 -6z"/> <path d="M3530 5983 c0 -19 11 -43 21 -43 13 0 11 14 -6 36 -8 10 -15 14 -15 7z"/> <path d="M4207 5793 c-10 -17 -19 -118 -9 -108 5 6 12 34 15 63 6 49 4 62 -6 45z"/> <path d="M3571 5678 c0 -27 4 -48 9 -48 11 0 11 21 0 65 -7 27 -8 25 -9 -17z"/> <path d="M4169 5630 c-6 -34 -20 -36 -318 -30 -141 3 -260 2 -265 -2 -5 -4 -6 -14 -3 -22 6 -14 43 -16 302 -16 228 0 297 3 300 13 2 6 1 28 -4 47 -7 32 -8 33 -12 10z"/> <path d="M3500 5554 c0 -9 7 -14 17 -12 25 5 28 28 4 28 -12 0 -21 -6 -21 -16z"/> <path d="M4220 5562 c0 -5 12 -14 26 -21 22 -10 25 -9 22 6 -3 18 -48 32 -48 15z"/> <path d="M4250 5472 c-15 -23 -15 -23 -363 -23 -317 0 -351 1 -368 17 -18 16 -19 16 -19 -5 0 -12 8 -24 18 -27 9 -3 24 -9 34 -14 10 -6 28 -5 46 2 24 9 34 9 46 -1 21 -18 21 -94 0 -115 -34 -35 -61 -13 -67 54 l-4 45 -1 -45 c-2 -49 -15 -70 -44 -70 -10 0 -21 -7 -25 -15 -8 -23 7 -33 18 -12 9 16 37 17 357 16 191 0 353 -3 359 -7 7 -4 17 -19 22 -32 11 -25 11 -24 8 5 -3 40 -66 73 -105 55 -21 -9 -30 -8 -54 10 -21 15 -28 17 -28 6 0 -13 -20 -26 -40 -26 -34 0 -56 100 -28 128 15 15 55 16 63 2 4 -6 16 -8 28 -4 12 4 48 8 79 8 62 1 93 19 86 52 -3 16 -5 16 -18 -4z m-512 -54 c7 -7 12 -33 12 -60 0 -37 -4 -50 -19 -58 -25 -13 -27 -13 -45 6 -19 18 -22 94 -4 112 7 7 19 12 28 12 9 0 21 -5 28 -12z m100 0 c7 -7 12 -33 12 -60 0 -36 -4 -50 -18 -57 -22 -12 -61 -4 -63 13 -8 62 -5 92 9 104 20 15 45 15 60 0z m140 0 c7 -7 12 -33 12 -60 0 -55 -24 -78 -60 -58 -16 9 -20 21 -20 65 0 33 5 55 13 58 22 9 43 7 55 -5z"/> <path d="M2536 5390 c-42 -51 -46 -120 -8 -162 51 -59 134 51 88 117 -7 11 -16 32 -20 48 -8 35 -28 34 -60 -3z"/> <path d="M5180 5398 c0 -12 -7 -30 -16 -39 -23 -26 -23 -89 1 -121 25 -34 55 -35 83 -5 33 35 30 94 -8 145 -33 46 -60 55 -60 20z"/> <path d="M3290 5236 c-46 -22 -137 -63 -320 -143 -19 -8 -41 -22 -47 -31 -13 -16 -18 -72 -7 -72 3 0 29 11 57 24 49 22 99 45 192 86 197 89 191 84 177 131 l-7 27 -45 -22z"/> <path d="M4235 5175 c-25 -11 -27 -14 -12 -20 23 -9 47 1 47 20 0 8 -1 15 -2 14 -2 0 -16 -7 -33 -14z"/> <path d="M3500 5165 c0 -10 7 -15 18 -13 21 4 19 22 -2 26 -10 2 -16 -3 -16 -13z"/> <path d="M2336 5162 c-8 -13 26 -73 50 -89 13 -8 44 -15 71 -15 26 0 60 -6 75 -14 20 -10 34 -11 53 -4 15 6 44 10 65 10 49 0 88 15 112 42 22 26 24 78 3 78 -8 0 -15 -4 -15 -10 0 -5 -25 -10 -55 -10 -49 0 -59 -4 -95 -37 l-41 -36 -33 36 c-31 34 -38 37 -89 37 -31 0 -59 5 -62 10 -7 12 -32 13 -39 2z"/> <path d="M4996 5163 c-13 -14 -5 -44 22 -73 23 -26 37 -32 100 -39 41 -5 76 -12 79 -15 3 -3 21 1 40 9 20 8 59 15 87 15 57 0 85 19 105 73 9 22 8 29 -5 34 -8 3 -20 1 -27 -6 -6 -6 -35 -11 -64 -11 -40 0 -58 -5 -73 -20 -11 -11 -20 -24 -20 -29 0 -5 -9 -13 -20 -16 -15 -5 -29 3 -54 29 -29 31 -39 36 -80 36 -26 0 -55 4 -65 10 -10 5 -21 6 -25 3z"/> <path d="M3597 5139 c5 -17 11 -19 32 -14 45 13 482 18 494 6 22 -22 57 -7 57 25 0 2 -132 4 -294 4 -293 0 -294 0 -289 -21z"/> <path d="M4136 5048 c-3 -17 -2 -36 4 -42 7 -7 10 4 10 32 0 50 -5 54 -14 10z"/> <path d="M3633 5000 c0 -30 2 -43 4 -27 2 15 2 39 0 55 -2 15 -4 2 -4 -28z"/> <path d="M3754 4998 c19 -148 52 -493 55 -580 1 -10 6 -18 11 -18 12 0 13 186 3 463 l-6 187 -35 0 -35 0 7 -52z"/> <path d="M3945 5038 c-8 -25 -22 -656 -16 -694 l7 -39 7 40 c4 22 7 61 7 86 0 25 7 90 15 145 8 54 15 127 15 161 0 34 4 84 9 110 5 26 12 83 16 126 l6 77 -31 0 c-17 0 -33 -6 -35 -12z"/> <path d="M5401 4984 c-18 -8 -53 -14 -76 -14 -36 0 -48 -5 -68 -30 -14 -16 -32 -30 -39 -30 -8 0 -25 14 -40 30 -23 27 -33 30 -82 30 -30 0 -58 5 -61 10 -13 22 -35 10 -35 -19 0 -20 9 -37 31 -55 25 -22 41 -26 89 -26 32 0 62 -4 65 -10 3 -5 17 -10 30 -10 13 0 27 5 30 10 3 6 34 10 68 10 72 0 97 13 122 66 21 45 10 57 -34 38z"/> <path d="M2330 4969 c0 -13 12 -37 27 -54 23 -26 33 -30 92 -33 36 -2 70 -8 76 -13 12 -12 52 -11 60 1 3 6 33 10 65 10 51 0 64 4 89 28 17 15 33 40 37 56 7 28 6 29 -22 22 -16 -4 -55 -11 -86 -15 -45 -5 -61 -12 -78 -34 -12 -15 -28 -27 -35 -27 -7 0 -23 12 -35 27 -17 22 -33 29 -78 34 -31 4 -69 11 -84 14 -25 7 -28 5 -28 -16z"/> <path d="M4108 4865 c-1 -25 -2 -53 -2 -62 -1 -11 5 -16 14 -14 8 2 28 6 44 9 l30 5 -35 11 c-32 11 -34 14 -31 54 1 24 -2 42 -8 42 -5 0 -11 -20 -12 -45z"/> <path d="M3656 4845 c-5 -20 -15 -26 -49 -32 l-42 -7 40 -8 c22 -5 46 -16 53 -25 10 -14 12 -8 12 40 0 62 -4 71 -14 32z"/> <path d="M2310 4802 c0 -10 13 -33 29 -52 26 -32 35 -35 102 -43 85 -9 101 -9 190 -1 78 7 119 33 122 79 2 33 8 33 -98 15 -42 -7 -66 -18 -80 -34 -31 -36 -54 -40 -67 -11 -13 28 -20 32 -111 51 -86 18 -87 18 -87 -4z"/> <path d="M3266 4811 c-11 -4 -15 -10 -10 -13 14 -9 65 3 58 13 -6 11 -22 11 -48 0z"/> <path d="M4452 4811 c-10 -6 -6 -10 15 -14 15 -3 32 -1 38 4 5 6 5 9 -2 9 -6 0 -17 2 -25 5 -7 3 -19 1 -26 -4z"/> <path d="M5010 4797 c0 -15 12 -38 30 -55 25 -26 40 -31 97 -36 128 -11 244 -1 280 25 25 18 48 68 35 81 -7 7 -128 -12 -164 -27 -10 -4 -18 -14 -18 -21 0 -19 -41 -35 -57 -22 -7 6 -13 16 -13 23 0 16 -20 24 -85 35 -27 5 -62 11 -77 15 -25 6 -28 4 -28 -18z"/> <path d="M3172 4770 c-39 -22 -72 -50 -72 -62 0 -16 21 -7 50 22 16 16 40 32 54 36 14 3 26 10 26 15 0 14 -22 10 -58 -11z"/> <path d="M4544 4775 c11 -8 24 -15 29 -15 6 0 25 -15 42 -33 25 -26 32 -40 28 -61 -3 -14 -9 -29 -14 -32 -5 -3 -9 -17 -8 -32 l1 -27 11 28 c6 15 17 27 24 27 10 0 12 11 7 43 -7 42 -37 87 -60 87 -6 0 -17 7 -24 15 -7 8 -22 15 -34 15 -21 -1 -21 -1 -2 -15z"/> <path d="M4081 4688 c1 -60 2 -61 10 -23 11 55 11 85 -1 85 -6 0 -10 -27 -9 -62z"/> <path d="M2029 4677 c-47 -23 -122 -56 -199 -89 -25 -10 -52 -22 -60 -27 -9 -5 -30 -12 -48 -16 -60 -13 -46 -22 155 -94 29 -11 60 -27 69 -35 8 -9 19 -16 24 -16 13 0 156 -99 204 -142 24 -21 47 -38 50 -38 3 0 6 20 6 43 0 36 -5 49 -29 70 -46 41 -151 112 -222 150 -69 37 -84 61 -47 73 13 4 60 24 106 45 46 22 90 39 98 39 22 0 16 26 -11 44 -31 21 -41 20 -96 -7z"/> <path d="M3681 4678 c0 -13 4 -43 8 -68 8 -44 9 -44 10 23 0 39 -3 67 -9 67 -5 0 -10 -10 -9 -22z"/> <path d="M3110 4646 c0 -26 15 -43 24 -28 7 12 -4 52 -15 52 -5 0 -9 -11 -9 -24z"/> <path d="M2310 4617 c0 -15 12 -38 30 -55 24 -25 40 -31 97 -37 108 -11 224 -5 262 12 38 18 66 70 49 90 -6 8 -16 9 -27 4 -9 -5 -40 -11 -69 -15 -66 -8 -82 -15 -82 -32 0 -7 -10 -19 -22 -25 -19 -10 -25 -8 -47 19 -20 24 -39 33 -81 41 -31 5 -68 13 -83 16 -24 6 -27 4 -27 -18z"/> <path d="M3024 4630 c-11 -4 -28 -20 -37 -34 -10 -14 -25 -26 -35 -27 -9 0 -1 -6 18 -12 35 -12 35 -12 44 20 5 23 16 35 32 39 13 3 24 10 24 15 0 11 -18 11 -46 -1z"/> <path d="M4701 4630 c-8 -4 -2 -9 18 -13 26 -5 31 -11 31 -35 0 -15 -9 -45 -19 -65 -22 -44 -39 -123 -23 -113 5 3 12 20 16 38 11 58 38 106 62 112 22 6 22 6 -9 39 -36 38 -58 49 -76 37z"/> <path d="M5021 4631 c-16 -11 11 -72 40 -90 35 -21 127 -27 273 -17 75 5 109 26 121 73 9 36 -3 43 -50 32 -22 -5 -57 -11 -78 -14 -27 -4 -41 -13 -49 -30 -13 -29 -44 -38 -61 -19 -7 8 -18 21 -25 29 -7 7 -34 17 -60 20 -26 4 -59 10 -73 15 -14 4 -31 5 -38 1z"/> <path d="M4062 4583 c-14 -27 -24 -175 -12 -168 6 3 10 27 10 53 1 26 5 66 9 90 9 45 7 52 -7 25z"/> <path d="M3146 4571 c-4 -5 -2 -20 3 -33 9 -21 10 -21 10 10 1 32 -3 39 -13 23z"/> <path d="M2888 4550 c-10 -6 -14 -18 -11 -30 7 -27 16 -25 36 10 19 32 9 39 -25 20z"/> <path d="M4846 4543 c4 -10 7 -33 7 -52 -2 -39 6 -34 22 14 13 36 5 55 -23 55 -10 0 -12 -5 -6 -17z"/> <path d="M4591 4508 c0 -28 2 -30 9 -13 12 28 12 45 0 45 -5 0 -10 -15 -9 -32z"/> <path d="M3025 4493 c4 -21 10 -42 15 -48 5 -5 11 -27 15 -47 4 -21 13 -42 21 -49 8 -6 14 -27 14 -45 0 -19 5 -34 10 -34 6 0 10 5 10 12 0 18 -40 140 -56 170 -8 14 -14 38 -14 52 0 14 -5 26 -11 26 -8 0 -9 -12 -4 -37z"/> <path d="M3716 4450 c4 -47 10 -89 15 -94 5 -6 6 28 3 75 -4 46 -11 88 -16 94 -5 6 -6 -23 -2 -75z"/> <path d="M3171 4473 c0 -10 4 -27 9 -38 7 -16 9 -13 9 18 1 20 -3 37 -9 37 -5 0 -10 -8 -9 -17z"/> <path d="M2905 4453 c8 -32 13 -39 21 -30 10 9 -5 57 -17 57 -7 0 -9 -10 -4 -27z"/> <path d="M2320 4447 c0 -14 10 -38 23 -53 20 -22 34 -28 83 -31 32 -2 69 -9 81 -15 12 -6 34 -8 50 -4 15 4 51 8 80 9 59 3 103 29 117 70 6 15 8 29 5 31 -3 3 -38 2 -78 -1 -62 -5 -77 -10 -101 -35 -30 -29 -70 -38 -70 -14 0 22 -41 42 -100 49 -30 3 -63 8 -72 12 -14 6 -18 2 -18 -18z"/> <path d="M5010 4450 c0 -56 60 -98 145 -100 22 0 54 -1 70 -1 17 -1 63 4 103 9 85 11 122 37 122 85 0 26 -3 29 -22 23 -13 -4 -45 -10 -73 -12 -39 -5 -58 -13 -85 -40 -38 -36 -60 -43 -60 -20 0 25 -53 53 -110 59 -30 3 -63 8 -72 12 -14 6 -18 2 -18 -15z"/> <path d="M4560 4420 c0 -17 -6 -43 -14 -58 -20 -40 -31 -102 -17 -102 6 0 11 15 11 33 0 18 6 41 14 52 18 27 31 105 17 105 -6 0 -11 -14 -11 -30z"/> <path d="M4826 4435 c-9 -24 -7 -45 3 -45 12 0 22 43 12 53 -5 5 -11 1 -15 -8z"/> <path d="M2940 4373 c0 -18 5 -33 10 -33 13 0 13 30 0 50 -7 11 -10 7 -10 -17z"/> <path d="M3205 4359 c4 -24 13 -54 21 -66 8 -12 14 -38 14 -58 0 -19 5 -35 11 -35 15 0 5 67 -16 106 -8 16 -15 41 -15 56 0 15 -5 30 -11 34 -8 5 -9 -6 -4 -37z"/> <path d="M4677 4368 c-9 -32 -8 -48 2 -48 12 0 20 46 11 60 -5 7 -10 3 -13 -12z"/> <path d="M4796 4348 c-3 -13 -1 -27 4 -32 7 -7 10 1 10 22 0 37 -5 41 -14 10z"/> <path d="M4017 4308 c-4 -30 -2 -57 3 -62 7 -7 10 12 10 52 0 34 -2 62 -4 62 -2 0 -6 -23 -9 -52z"/> <path d="M2966 4311 c-4 -6 -3 -18 2 -27 6 -11 11 -13 16 -5 4 6 3 18 -2 27 -6 11 -11 13 -16 5z"/> <path d="M2310 4291 c0 -21 29 -69 52 -85 14 -10 44 -16 80 -16 31 0 60 -4 63 -10 3 -5 19 -10 35 -10 16 0 32 5 35 10 3 6 33 10 65 10 69 0 106 25 116 78 6 28 4 32 -14 32 -12 0 -24 -4 -27 -10 -3 -5 -29 -10 -56 -10 -43 0 -54 -4 -85 -35 -19 -19 -39 -35 -44 -35 -5 0 -16 13 -25 30 -16 30 -28 35 -100 44 -22 2 -52 8 -67 11 -19 5 -28 3 -28 -4z"/> <path d="M4645 4279 c-4 -12 -2 -26 4 -32 8 -8 11 -2 11 21 0 37 -6 41 -15 11z"/> <path d="M5010 4286 c0 -26 28 -74 49 -86 11 -5 41 -10 67 -10 26 0 63 -5 81 -12 27 -10 38 -10 53 0 11 7 46 12 77 12 42 1 64 6 80 19 49 40 51 113 3 83 -11 -6 -42 -12 -69 -12 -46 0 -81 -17 -81 -39 0 -4 -10 -13 -23 -18 -21 -10 -27 -7 -50 22 -23 29 -33 34 -84 38 -32 2 -68 8 -80 12 -18 6 -23 4 -23 -9z"/> <path d="M3751 4238 c0 -33 3 -58 9 -58 12 0 12 20 1 75 -9 40 -9 39 -10 -17z"/> <path d="M4770 4265 c1 -26 2 -28 11 -12 8 14 8 22 0 30 -8 8 -11 3 -11 -18z"/> <path d="M2990 4233 c0 -10 5 -25 10 -33 7 -11 10 -7 10 18 0 17 -4 32 -10 32 -5 0 -10 -8 -10 -17z"/> <path d="M3120 4223 c0 -18 5 -33 10 -33 13 0 13 30 0 50 -7 11 -10 7 -10 -17z"/> <path d="M4496 4207 c-5 -15 -6 -31 -2 -34 11 -11 18 5 14 34 l-4 28 -8 -28z"/> <path d="M4740 4198 c-1 -13 -9 -41 -20 -63 -11 -22 -19 -45 -20 -51 0 -7 -7 -25 -15 -40 -17 -32 -20 -64 -6 -64 5 0 12 16 15 35 4 19 13 47 21 62 8 15 15 35 15 43 0 8 7 24 15 34 17 22 20 66 5 66 -5 0 -10 -10 -10 -22z"/> <path d="M4617 4188 c-4 -12 -4 -24 -1 -27 6 -7 24 20 24 37 0 21 -17 13 -23 -10z"/> <path d="M3020 4153 c1 -10 9 -36 20 -58 11 -22 19 -48 20 -57 0 -9 5 -20 11 -24 15 -9 4 54 -16 93 -8 15 -15 36 -15 46 0 9 -4 17 -10 17 -5 0 -10 -8 -10 -17z"/> <path d="M3270 4143 c0 -18 5 -33 10 -33 13 0 13 30 0 50 -7 11 -10 7 -10 -17z"/> <path d="M3987 4133 c-4 -20 -2 -43 3 -52 7 -11 9 -1 10 37 0 61 -5 67 -13 15z"/> <path d="M3141 4148 c0 -7 4 -22 9 -33 7 -17 9 -15 9 13 1 17 -3 32 -9 32 -5 0 -10 -6 -9 -12z"/> <path d="M4466 4125 c-9 -24 -7 -45 3 -45 5 0 13 9 16 21 8 26 -9 48 -19 24z"/> <path d="M2307 4123 c-9 -14 24 -73 49 -90 13 -8 51 -17 85 -19 34 -2 67 -8 75 -14 9 -8 18 -8 33 -1 11 6 41 11 66 11 65 0 114 25 132 68 16 38 4 58 -26 42 -9 -4 -44 -11 -79 -15 -53 -6 -65 -11 -72 -30 -14 -37 -41 -40 -70 -7 -20 25 -38 32 -92 41 -37 7 -74 14 -82 17 -8 3 -16 1 -19 -3z"/> <path d="M4591 4098 c0 -28 2 -30 9 -13 12 28 12 45 0 45 -5 0 -10 -15 -9 -32z"/> <path d="M5420 4120 c-8 -5 -29 -10 -46 -10 -45 0 -92 -19 -99 -40 -11 -36 -59 -35 -70 1 -7 20 -76 44 -106 36 -11 -3 -22 -1 -25 4 -5 8 -64 13 -64 5 0 -2 7 -19 15 -38 18 -44 65 -68 132 -68 26 0 55 -4 62 -9 9 -6 22 -6 35 1 11 6 48 12 84 13 53 2 68 6 88 27 40 40 35 104 -6 78z"/> <path d="M3781 4051 c-1 -42 2 -52 11 -43 8 8 8 23 1 54 l-11 43 -1 -54z"/> <path d="M3170 4066 c0 -8 3 -22 6 -31 9 -23 23 0 17 26 -6 22 -23 26 -23 5z"/> <path d="M3297 4073 c-8 -13 3 -53 14 -53 11 0 11 31 0 49 -5 7 -11 9 -14 4z"/> <path d="M4567 4043 c-4 -3 -7 -16 -7 -27 -1 -12 -9 -39 -20 -61 -21 -43 -25 -75 -11 -75 5 0 12 17 16 38 4 20 10 42 15 47 9 11 25 85 18 85 -3 0 -8 -3 -11 -7z"/> <path d="M4441 4008 c0 -28 2 -30 9 -13 12 28 12 45 0 45 -5 0 -10 -15 -9 -32z"/> <path d="M3085 3973 c8 -31 13 -39 20 -31 9 9 -6 58 -17 58 -6 0 -7 -11 -3 -27z"/> <path d="M3204 3964 c4 -21 14 -47 22 -58 8 -11 14 -33 14 -48 0 -16 5 -28 11 -28 11 0 3 57 -11 75 -5 6 -11 27 -15 48 -4 20 -12 40 -18 44 -6 4 -7 -7 -3 -33z"/> <path d="M3961 3955 c0 -35 1 -37 10 -17 6 15 5 30 -1 40 -7 13 -9 8 -9 -23z"/> <path d="M2717 3966 c-7 -8 -32 -17 -54 -21 -44 -7 -93 -44 -93 -70 0 -23 -28 -18 -62 10 -26 22 -38 25 -106 24 -42 -1 -80 -3 -84 -6 -5 -2 -1 -17 7 -33 26 -50 99 -75 146 -49 14 7 30 7 54 -1 27 -9 38 -8 57 4 13 8 43 18 67 22 53 9 99 47 107 90 7 35 -16 53 -39 30z"/> <path d="M3327 3973 c-2 -5 -1 -19 4 -33 7 -23 7 -23 8 8 1 31 -3 40 -12 25z"/> <path d="M5016 3973 c-20 -20 16 -97 52 -111 15 -6 43 -14 62 -18 19 -3 47 -13 62 -22 23 -14 31 -14 53 -2 19 10 30 11 50 2 14 -7 39 -12 54 -12 40 0 95 40 99 71 3 25 2 25 -74 27 -67 1 -80 -2 -109 -23 -42 -33 -49 -32 -73 9 -16 27 -31 38 -64 46 -24 6 -54 16 -68 22 -14 7 -28 13 -31 15 -3 1 -9 0 -13 -4z"/> <path d="M4646 3945 c-8 -23 -8 -35 3 -35 13 0 23 32 13 42 -6 6 -12 3 -16 -7z"/> <path d="M4408 3913 c-5 -36 -3 -52 6 -42 9 11 16 79 8 79 -6 0 -12 -17 -14 -37z"/> <path d="M3121 3893 c-1 -18 4 -33 9 -33 12 0 12 17 0 45 -7 17 -9 15 -9 -12z"/> <path d="M3804 3884 c-7 -24 -8 -48 -3 -57 16 -27 -15 -36 -132 -40 l-114 -3 133 -2 c113 -2 134 -4 139 -18 4 -11 -1 -22 -12 -30 -18 -13 -18 -14 -1 -27 10 -7 26 -35 35 -62 9 -27 21 -50 26 -52 21 -6 37 15 42 56 4 26 13 45 24 52 15 8 17 13 7 28 -15 25 -3 51 24 51 23 1 23 1 3 16 -17 12 -18 17 -7 35 8 12 9 26 4 35 -6 11 -14 1 -32 -41 -28 -66 -58 -81 -93 -46 -16 16 -23 38 -27 84 l-5 62 -11 -41z"/> <path d="M3350 3880 c0 -18 30 -70 40 -70 6 0 10 5 10 10 0 6 -4 10 -9 10 -5 0 -12 14 -16 30 -6 28 -25 43 -25 20z"/> <path d="M4618 3865 c-3 -14 -2 -28 3 -30 12 -8 22 36 11 47 -6 6 -11 0 -14 -17z"/> <path d="M4377 3853 c-10 -10 -8 -43 2 -43 9 0 21 24 21 41 0 11 -14 12 -23 2z"/> <path d="M3448 3838 c8 -8 20 -8 44 -1 l33 11 -44 1 c-34 1 -42 -2 -33 -11z"/> <path d="M4273 3838 c28 -7 42 -7 50 1 8 8 -2 11 -38 10 l-50 -1 38 -10z"/> <path d="M4495 3829 c-4 -12 -2 -26 4 -32 8 -8 11 -2 11 21 0 37 -6 41 -15 11z"/> <path d="M3146 3832 c-4 -7 -3 -19 2 -28 12 -21 22 -5 12 20 -4 13 -9 16 -14 8z"/> <path d="M4975 3807 c-4 -13 -2 -35 4 -49 11 -29 59 -78 77 -78 15 0 72 -29 79 -41 4 -5 25 -9 48 -9 23 -1 53 -7 67 -15 41 -23 82 -18 123 16 41 34 40 49 -3 49 -16 0 -31 4 -34 9 -3 4 -26 11 -52 15 -37 5 -53 2 -80 -15 -36 -22 -54 -19 -54 10 0 27 -29 54 -102 94 -68 36 -68 36 -73 14z"/> <path d="M2730 3795 c-19 -13 -41 -24 -47 -24 -22 -1 -53 -40 -53 -65 0 -33 -24 -39 -68 -16 -33 17 -45 19 -88 9 -27 -5 -61 -13 -76 -16 -37 -7 -35 -27 5 -57 38 -29 79 -33 117 -11 14 8 42 14 63 15 24 0 52 9 75 25 20 14 44 25 53 25 38 0 99 89 85 125 -8 21 -25 18 -66 -10z"/> <path d="M4590 3778 c0 -25 3 -29 10 -18 13 20 13 50 0 50 -5 0 -10 -15 -10 -32z"/> <path d="M3271 3779 c-1 -38 28 -70 57 -63 30 8 28 24 -3 24 -19 0 -29 8 -39 33 -14 31 -14 32 -15 6z"/> <path d="M4058 3783 c28 -2 76 -2 105 0 28 2 5 3 -53 3 -58 0 -81 -1 -52 -3z"/> <path d="M3170 3758 c0 -23 12 -58 19 -58 4 0 5 16 3 35 -4 32 -22 51 -22 23z"/> <path d="M3405 3760 c-15 -6 -7 -9 30 -9 36 -1 46 2 35 9 -18 12 -38 12 -65 0z"/> <path d="M4295 3760 c-4 -6 12 -10 42 -9 39 1 43 3 23 9 -36 11 -58 11 -65 0z"/> <path d="M4464 3755 c-4 -8 -17 -15 -30 -15 -13 0 -24 -4 -24 -10 0 -5 16 -10 35 -10 31 0 35 3 35 25 0 28 -8 33 -16 10z"/> <path d="M4567 3733 c-11 -19 -18 -73 -9 -73 5 0 13 16 17 36 6 35 2 54 -8 37z"/> <path d="M5628 3728 c-21 -6 -38 -15 -38 -22 0 -6 21 -21 48 -34 117 -56 128 -94 34 -112 -32 -6 -67 -15 -80 -20 -13 -6 -34 -10 -48 -10 -33 0 -29 -25 7 -52 19 -15 31 -17 50 -10 37 14 81 26 236 63 139 33 163 46 112 59 -41 12 -167 77 -234 123 -22 15 -42 27 -45 26 -3 -1 -22 -6 -42 -11z"/> <path d="M2776 3665 c-63 -68 -65 -73 -64 -112 2 -42 -3 -46 -36 -33 -44 16 -76 12 -125 -18 -25 -16 -55 -32 -66 -36 -19 -7 -18 -9 9 -33 25 -21 37 -24 73 -20 25 2 57 15 77 31 19 14 41 26 50 26 8 0 43 26 76 59 89 85 108 128 73 169 -18 20 -19 20 -67 -33z"/> <path d="M4917 3673 c-5 -26 -1 -45 10 -63 24 -39 133 -140 150 -140 9 0 31 -12 50 -26 46 -35 102 -42 142 -18 17 10 30 22 28 27 -1 4 -33 25 -70 45 -63 34 -69 36 -109 25 -23 -6 -46 -9 -50 -7 -5 3 -8 23 -8 44 0 33 -7 46 -55 94 -30 31 -61 56 -68 56 -9 0 -17 -15 -20 -37z"/> <path d="M3490 3690 c0 -7 19 -8 53 -4 70 9 72 14 4 14 -33 0 -57 -4 -57 -10z"/> <path d="M4151 3696 c11 -9 119 -15 119 -6 0 6 -27 10 -62 10 -34 0 -59 -2 -57 -4z"/> <path d="M3200 3675 c0 -26 30 -75 45 -75 21 0 19 12 -5 33 -11 9 -20 26 -20 37 0 11 -4 20 -10 20 -5 0 -10 -7 -10 -15z"/> <path d="M1493 3665 c-7 -20 23 -101 53 -140 13 -17 43 -46 68 -64 25 -19 43 -38 39 -44 -6 -9 -90 -4 -130 8 -39 12 -28 -29 18 -66 76 -62 89 -77 83 -94 -9 -22 17 -47 81 -80 31 -15 58 -32 61 -36 3 -5 14 -9 24 -9 26 0 30 -10 33 -78 2 -47 8 -67 30 -95 23 -30 27 -46 27 -97 0 -68 8 -90 52 -137 26 -26 29 -37 24 -65 -9 -51 19 -98 79 -128 45 -23 50 -29 57 -69 9 -52 37 -85 98 -114 39 -19 46 -27 53 -63 11 -57 52 -101 115 -123 43 -14 58 -26 81 -63 31 -48 80 -78 130 -78 28 0 34 -5 50 -42 27 -62 50 -79 113 -82 58 -3 78 -10 78 -30 0 -18 70 -80 112 -99 20 -10 49 -17 65 -17 16 0 33 -3 36 -7 10 -10 -34 -53 -54 -53 -25 0 -171 -74 -193 -98 -38 -43 12 -83 109 -87 52 -1 70 -7 89 -24 30 -29 93 -37 151 -21 43 12 47 11 71 -11 22 -20 36 -24 95 -25 49 0 74 -5 87 -17 12 -11 36 -17 70 -17 62 0 81 17 138 126 49 95 71 116 115 112 30 -3 34 -7 37 -35 3 -29 -17 -78 -50 -124 -19 -27 -3 -49 37 -49 29 0 39 -6 55 -32 11 -18 20 -43 20 -55 0 -41 17 -33 59 27 l42 60 74 0 c83 0 89 -4 137 -82 16 -27 34 -45 40 -42 5 3 19 27 30 53 27 64 45 81 85 81 30 0 34 3 31 23 -2 14 -11 23 -24 25 -38 5 -55 35 -52 88 3 55 -6 52 117 38 39 -5 63 -2 92 11 32 15 43 16 68 5 19 -7 47 -10 73 -5 24 3 73 8 109 10 37 2 82 10 100 18 19 8 42 18 52 21 12 4 17 14 15 28 -3 22 0 23 62 23 57 1 76 6 134 38 84 47 155 98 156 114 0 21 31 43 58 43 40 0 123 52 186 116 57 57 64 72 45 91 -17 17 -4 30 35 37 29 6 42 18 79 74 25 37 54 90 66 117 12 28 27 60 33 72 6 11 7 26 4 31 -4 6 4 21 18 34 49 47 72 96 131 278 27 80 72 177 114 240 40 61 166 191 222 230 69 47 127 156 128 242 1 20 6 59 13 87 14 64 3 81 -35 56 -15 -9 -30 -14 -35 -11 -5 3 -25 -8 -43 -25 -118 -106 -260 -192 -419 -253 -25 -10 -58 -24 -75 -31 -16 -7 -66 -20 -110 -30 -187 -42 -343 -145 -466 -307 -33 -42 -59 -79 -59 -82 0 -3 -13 -24 -29 -48 -16 -24 -37 -59 -48 -78 -84 -156 -208 -277 -353 -345 -84 -40 -134 -49 -270 -49 -170 -1 -185 5 -211 89 -10 33 -19 68 -19 78 0 19 -12 50 -56 142 -52 110 -148 202 -237 226 -55 15 -131 5 -164 -21 -23 -18 -35 -20 -83 -14 -99 11 -186 -44 -178 -113 3 -25 7 -28 38 -29 83 -1 96 -5 130 -37 51 -47 70 -95 70 -180 0 -66 -3 -76 -31 -110 -30 -37 -31 -37 -105 -37 -74 0 -152 17 -207 46 -16 7 -33 14 -38 14 -13 0 -106 58 -174 109 -88 65 -211 191 -309 316 -48 61 -96 121 -108 135 -11 13 -28 36 -36 50 -38 60 -163 218 -198 251 -119 111 -236 170 -390 199 -104 19 -167 36 -244 65 -107 40 -232 94 -282 121 -34 18 -57 18 -65 -1z m120 -60 c30 -19 227 -105 242 -105 6 0 34 -11 61 -25 27 -14 54 -25 59 -25 39 0 214 -129 297 -218 60 -65 148 -176 148 -187 0 -3 11 -21 24 -38 33 -44 102 -171 130 -237 3 -8 15 -28 26 -45 11 -16 23 -37 27 -45 34 -77 214 -250 338 -327 109 -67 252 -122 399 -152 121 -26 216 -28 216 -6 0 12 -14 15 -62 15 -122 0 -378 74 -493 143 -184 110 -333 257 -407 402 -9 17 -25 48 -36 70 -11 22 -29 56 -41 75 -11 19 -25 45 -30 57 -47 106 -223 316 -343 410 -55 42 -74 73 -45 73 19 0 152 -59 218 -97 60 -35 194 -169 244 -243 16 -25 32 -47 35 -50 3 -3 26 -34 51 -70 25 -36 54 -76 66 -90 11 -14 55 -66 97 -116 240 -290 485 -444 703 -444 47 0 85 6 104 15 28 15 30 15 41 -10 9 -21 17 -25 35 -20 16 4 23 1 23 -9 0 -24 19 -29 45 -12 34 23 50 20 74 -11 l21 -28 19 23 c19 22 61 31 61 12 0 -5 9 -14 21 -20 17 -10 21 -8 26 9 7 28 40 37 63 16 20 -18 40 -13 40 11 0 25 28 27 56 5 34 -27 42 -26 46 2 3 22 5 22 128 19 101 -3 142 0 211 17 126 31 245 97 335 185 37 38 130 161 147 196 4 8 13 24 20 35 7 11 25 43 41 70 128 218 318 369 506 400 24 4 51 11 60 15 8 5 38 16 65 25 176 61 339 147 459 244 46 37 68 40 62 9 -3 -13 -7 -43 -11 -67 -6 -47 -27 -70 -75 -83 -68 -18 -120 -42 -117 -52 4 -13 73 -9 100 5 22 12 37 4 37 -21 0 -33 -123 -120 -169 -120 -24 0 -71 -20 -71 -30 0 -4 10 -14 21 -22 22 -14 22 -14 -24 -66 -40 -45 -73 -104 -151 -272 -17 -37 -27 -46 -51 -48 -16 -2 -36 -8 -43 -14 -17 -15 3 -38 34 -38 32 0 31 -17 -7 -93 -44 -90 -53 -100 -101 -106 -51 -7 -64 -35 -24 -51 14 -5 26 -17 26 -26 0 -21 -41 -101 -85 -168 -39 -59 -71 -81 -109 -74 -41 8 -54 -7 -28 -35 12 -13 22 -29 22 -36 0 -23 -103 -117 -157 -144 -45 -23 -53 -24 -69 -12 -31 24 -44 18 -44 -19 0 -31 -7 -40 -59 -80 -119 -92 -195 -115 -260 -81 -34 17 -42 12 -35 -25 7 -33 -10 -51 -66 -70 -32 -10 -49 -11 -71 -3 -23 9 -36 8 -58 -3 -33 -17 -66 -19 -133 -9 -35 6 -52 4 -69 -9 -33 -23 -101 -21 -124 4 -17 19 -17 21 6 67 22 45 24 59 24 208 -1 163 -19 285 -43 293 -17 5 -15 -39 5 -95 12 -36 17 -85 17 -193 1 -131 -1 -150 -22 -193 -19 -41 -25 -47 -37 -37 -10 8 -15 31 -15 62 0 52 -10 79 -43 116 -16 17 -31 22 -72 22 -45 0 -55 -4 -78 -30 -33 -36 -36 -37 -73 -5 -39 34 -76 40 -119 19 -19 -9 -38 -21 -42 -27 -6 -11 -20 -69 -29 -122 -14 -83 -6 -77 -92 -72 -42 3 -111 13 -152 22 -41 9 -97 20 -125 24 -27 4 -68 12 -90 18 -53 15 -162 32 -202 32 -17 0 -41 4 -52 10 -11 6 -29 11 -41 11 -27 0 -110 42 -133 68 -10 11 -22 33 -26 48 -7 28 -10 29 -79 34 -39 3 -77 11 -83 17 -7 7 -15 32 -18 55 l-6 43 -55 3 c-66 4 -113 35 -130 87 -6 19 -17 36 -23 36 -7 1 -19 3 -27 3 -31 3 -88 35 -108 61 -14 18 -22 42 -22 66 0 37 -2 39 -50 60 -66 28 -100 69 -100 119 0 37 -2 40 -54 63 -68 31 -90 67 -74 119 10 35 9 37 -37 81 l-47 46 4 63 c4 58 3 66 -25 100 -36 45 -42 105 -13 137 21 24 14 41 -18 41 -35 0 -109 36 -124 59 -14 24 -13 24 73 25 39 1 50 5 53 19 3 15 -5 17 -56 17 -83 0 -192 45 -211 87 l-10 22 110 -6 c105 -6 111 -5 107 13 -2 10 -16 23 -33 28 -69 21 -114 47 -157 91 -56 56 -78 102 -57 116 18 11 16 11 42 -6z m2276 -754 c50 -26 145 -130 178 -194 34 -68 63 -154 63 -187 0 -14 7 -35 15 -46 8 -10 15 -27 15 -38 0 -14 -5 -17 -25 -12 -21 5 -27 2 -35 -19 -9 -25 -11 -25 -40 -10 -28 14 -30 14 -42 -5 -17 -26 -54 -26 -69 1 l-11 22 -24 -27 c-30 -31 -50 -33 -59 -6 -7 21 -39 27 -50 10 -10 -17 -33 -11 -40 9 -5 16 -12 19 -42 14 l-36 -6 9 44 c5 24 9 78 9 119 0 133 -63 219 -169 230 -43 4 -51 8 -54 27 -3 17 5 26 34 38 60 25 121 19 211 -21 40 -18 63 -18 63 1 0 10 -10 15 -30 15 -25 0 -30 4 -30 23 0 13 3 27 7 30 14 15 115 7 152 -12z m27 -992 c33 -20 34 -22 34 -90 l0 -69 -37 -15 c-32 -14 -38 -14 -53 0 -9 9 -23 13 -31 10 -17 -6 -32 4 -46 28 -7 13 -5 32 5 65 18 55 29 71 57 82 30 13 35 12 71 -11z m233 2 c10 -10 24 -43 30 -71 10 -45 9 -57 -5 -77 -12 -19 -21 -23 -41 -18 -14 3 -31 1 -38 -5 -15 -12 -84 13 -86 33 -6 53 5 114 24 135 26 28 89 30 116 3z m-970 -130 c7 -5 11 -13 7 -19 -3 -6 -57 -45 -120 -86 -109 -73 -115 -76 -172 -76 -96 0 -116 42 -36 74 26 11 88 38 137 61 129 60 153 66 184 46z m129 -27 c12 -4 22 -11 22 -17 0 -20 -163 -162 -199 -174 -70 -22 -131 -12 -131 21 0 9 65 56 138 101 10 6 37 25 61 43 44 32 66 37 109 26z m140 -29 c33 -9 28 -25 -29 -91 -98 -114 -98 -114 -137 -114 -37 1 -72 19 -72 37 0 11 142 157 167 172 18 10 23 10 71 -4z m143 -37 c8 -12 2 -35 -15 -58 -7 -8 -22 -35 -35 -60 -32 -60 -47 -77 -78 -85 -37 -9 -83 12 -83 39 0 20 18 43 111 145 34 37 43 42 67 36 15 -4 30 -11 33 -17z m539 12 c0 -5 11 -20 25 -32 18 -17 26 -37 30 -71 2 -27 7 -53 11 -58 3 -6 -3 -19 -15 -30 -12 -11 -21 -28 -21 -39 0 -10 -4 -21 -8 -24 -16 -10 -48 5 -57 27 -6 12 -23 28 -38 35 -23 11 -26 17 -20 35 4 12 8 44 8 70 0 41 5 53 28 73 29 24 57 32 57 14z m-243 -20 c38 4 40 1 33 -47 -5 -31 -3 -57 6 -79 14 -34 7 -44 -36 -44 -10 0 -25 -11 -34 -25 -21 -32 -52 -33 -60 -1 -3 14 -16 26 -31 30 -26 7 -35 42 -15 62 6 6 13 34 17 62 6 50 6 51 42 54 20 2 41 -1 48 -5 6 -5 20 -8 30 -7z m123 -49 c14 -27 13 -54 -3 -75 -21 -29 -57 -5 -57 37 0 53 39 77 60 38z"/> <path d="M5734 3185 c-10 -8 -25 -15 -32 -15 -14 0 -43 -12 -132 -52 -170 -78 -324 -230 -449 -445 -24 -40 -53 -82 -65 -95 -12 -13 -37 -43 -56 -67 -91 -118 -263 -227 -452 -286 -36 -11 -58 -24 -58 -33 0 -15 18 -14 80 8 200 71 296 129 411 247 64 65 169 201 169 218 0 2 24 39 53 82 69 104 185 224 266 277 59 39 86 53 184 102 16 8 36 14 45 14 25 0 84 39 77 50 -8 14 -18 13 -41 -5z"/> <path d="M3611 2034 c-11 -15 -21 -34 -21 -43 0 -10 -6 -23 -12 -29 -20 -20 -16 -131 6 -179 11 -24 23 -43 28 -43 13 0 9 43 -7 70 -24 42 -18 105 15 172 33 67 28 99 -9 52z"/> <path d="M3377 3659 c8 -8 19 -8 40 -1 28 10 28 10 -11 11 -29 1 -37 -2 -29 -10z"/> <path d="M4343 3658 c21 -7 32 -7 40 1 8 8 0 11 -28 10 -40 -1 -40 -1 -12 -11z"/> <path d="M3301 3641 c-8 -5 -9 -11 -3 -15 14 -8 43 4 36 15 -7 11 -15 11 -33 0z"/> <path d="M4430 3640 c-8 -5 -5 -9 8 -12 11 -3 25 -2 32 2 8 5 5 9 -8 12 -11 3 -25 2 -32 -2z"/> <path d="M4517 3632 c-22 -24 -21 -32 3 -32 11 0 20 4 20 9 0 5 3 16 6 25 8 22 -9 20 -29 -2z"/> <path d="M2882 3560 c-9 -16 -20 -30 -24 -30 -3 0 -16 -16 -28 -35 -17 -28 -21 -44 -15 -72 7 -41 -6 -56 -42 -46 -32 7 -64 -3 -93 -30 -14 -13 -38 -32 -53 -41 -37 -25 -34 -41 13 -56 48 -16 71 -7 137 52 24 21 47 38 52 38 5 0 23 20 40 44 16 25 39 58 51 74 19 25 21 37 15 81 -8 59 -27 67 -53 21z"/> <path d="M4840 3564 c-17 -43 -11 -70 25 -120 20 -27 38 -57 42 -67 3 -10 25 -29 49 -43 24 -14 44 -30 44 -35 0 -11 75 -59 94 -59 7 0 31 7 52 16 l39 16 -30 24 c-36 30 -41 34 -82 63 -24 18 -39 22 -62 18 -51 -10 -63 0 -56 45 6 36 3 46 -36 104 -24 35 -50 64 -57 64 -7 0 -17 -12 -22 -26z"/> <path d="M2990 3525 c0 -20 -7 -47 -16 -61 -16 -24 -16 -50 2 -126 6 -26 4 -28 -23 -28 -35 0 -62 -24 -110 -99 -36 -58 -33 -71 16 -71 31 0 89 39 97 65 4 11 18 38 33 60 40 64 82 202 70 234 -25 65 -69 82 -69 26z"/> <path d="M4735 3534 c-29 -31 -33 -93 -10 -134 8 -14 15 -38 15 -55 0 -19 12 -43 30 -64 17 -18 30 -39 30 -46 0 -6 15 -28 33 -49 34 -39 88 -56 116 -37 12 8 10 15 -12 45 -15 19 -27 39 -27 45 0 20 -62 71 -86 71 -32 0 -41 25 -20 60 16 29 15 39 -11 98 -8 18 -13 40 -12 50 5 50 -10 55 -46 16z"/> <path d="M3116 3429 c-6 -77 -4 -94 9 -109 21 -23 16 -54 -10 -58 -31 -6 -56 -33 -78 -82 -11 -25 -27 -53 -35 -63 -14 -16 -14 -19 -2 -27 48 -30 140 33 140 96 0 9 11 31 24 48 18 24 25 49 30 116 9 105 3 132 -34 153 -15 9 -30 17 -33 17 -2 0 -7 -41 -11 -91z"/> <path d="M4596 3489 c-34 -40 -42 -75 -26 -113 7 -17 13 -50 14 -73 1 -23 8 -50 16 -60 24 -30 40 -62 40 -81 0 -26 50 -71 85 -77 53 -10 57 4 22 75 -35 71 -60 100 -89 100 -27 0 -33 26 -13 56 12 19 15 38 11 73 -11 94 -18 131 -26 131 -5 0 -20 -14 -34 -31z"/> <path d="M3279 3468 c0 -2 -2 -37 -3 -78 -3 -66 -1 -79 20 -107 31 -41 30 -58 -5 -72 -29 -12 -44 -35 -56 -81 -4 -14 -13 -40 -21 -58 -18 -40 -11 -54 24 -46 54 13 78 40 92 101 7 32 19 65 25 73 7 9 12 56 13 111 2 94 1 98 -27 128 -23 25 -59 41 -62 29z"/> <path d="M3447 3463 c-2 -5 -2 -41 1 -81 4 -64 8 -76 33 -102 16 -15 29 -32 29 -37 0 -5 -16 -23 -35 -40 -26 -23 -35 -39 -35 -62 0 -18 -7 -48 -15 -68 -8 -19 -15 -39 -15 -44 0 -19 56 -7 84 17 25 22 30 36 34 83 3 31 10 64 17 74 15 22 10 169 -8 205 -6 12 -25 32 -43 42 -35 22 -41 24 -47 13z"/> <path d="M3617 3463 c-9 -14 18 -148 33 -169 8 -11 23 -23 33 -27 27 -10 20 -33 -18 -57 -26 -16 -36 -30 -40 -58 -7 -43 -12 -72 -21 -108 -6 -25 -5 -26 21 -20 58 15 95 67 95 134 0 39 22 71 57 83 31 10 38 8 72 -15 44 -31 58 -32 66 -7 8 27 31 33 76 21 43 -12 59 -33 59 -81 0 -74 66 -151 113 -133 13 5 14 10 1 39 -8 19 -14 48 -14 66 0 36 -31 85 -60 94 -28 9 -25 28 9 48 31 18 48 67 53 147 4 59 -19 65 -67 17 -30 -30 -35 -42 -35 -83 0 -27 -4 -54 -8 -60 -4 -6 -41 -18 -82 -26 -66 -14 -83 -14 -145 -1 -38 8 -73 17 -77 21 -4 4 -10 27 -13 52 -7 64 -22 94 -54 113 -32 18 -47 21 -54 10z"/> <path d="M4282 3453 c-44 -21 -53 -42 -58 -127 -2 -39 -4 -78 -4 -86 -1 -14 11 -72 30 -150 10 -38 51 -70 89 -70 22 0 29 24 11 35 -5 3 -10 22 -10 41 0 49 -22 97 -53 113 -34 18 -34 44 -2 65 19 13 25 25 25 54 0 20 5 57 11 81 12 55 3 65 -39 44z"/> <path d="M4435 3443 c-29 -26 -30 -29 -31 -122 -1 -77 3 -102 18 -127 10 -17 18 -43 18 -58 0 -55 33 -93 98 -111 30 -8 37 13 17 51 -8 16 -15 40 -15 54 0 29 -23 59 -62 83 -33 21 -35 37 -8 62 18 17 20 29 18 104 -2 46 -7 86 -13 87 -5 2 -23 -9 -40 -23z"/> <path d="M3802 3144 c-24 -31 -41 -58 -39 -60 10 -11 35 10 62 54 37 58 39 62 28 62 -4 0 -27 -25 -51 -56z"/> <path d="M3920 3183 c0 -18 69 -103 82 -103 5 0 8 7 8 15 0 8 -4 15 -9 15 -4 0 -21 18 -36 40 -25 37 -45 51 -45 33z"/> <path d="M2941 3011 c-11 -7 -11 -17 2 -62 9 -30 21 -78 28 -107 6 -30 17 -56 25 -59 7 -3 40 5 74 16 33 12 67 21 75 21 10 0 15 11 15 35 0 32 -2 35 -29 35 -17 0 -33 -4 -36 -10 -10 -17 -52 -11 -60 8 -4 9 -13 42 -19 72 -10 47 -15 55 -36 58 -14 1 -31 -2 -39 -7z"/> <path d="M495 3949 c-10 -15 -7 -16 57 -22 61 -6 74 -1 57 20 -14 16 -105 18 -114 2z"/> <path d="M6970 2710 c0 -13 74 -50 99 -50 27 0 37 19 14 26 -10 3 -30 12 -45 20 -30 16 -68 19 -68 4z"/> <path d="M4107 916 c-3 -8 -2 -18 3 -21 13 -8 24 15 12 27 -6 6 -11 4 -15 -6z"/> <path d="M3660 955 c0 -22 4 -26 23 -23 14 2 22 10 22 23 0 13 -8 21 -22 23 -19 3 -23 -1 -23 -23z"/> <path d="M3653 848 c2 -7 10 -13 17 -13 7 0 15 6 18 13 2 7 -5 12 -18 12 -13 0 -20 -5 -17 -12z"/> <path d="M3892 908 c3 -69 18 -98 32 -62 11 30 -5 134 -21 134 -11 0 -13 -15 -11 -72z"/> <path d="M2400 865 c-9 -11 -10 -19 -2 -27 14 -14 32 -1 32 23 0 23 -13 25 -30 4z"/> <path d="M3001 706 c-13 -16 -13 -17 57 -41 15 -6 28 23 16 35 -19 18 -60 21 -73 6z"/> <path d="M2966 593 c-8 -19 -2 -26 42 -43 25 -10 35 -10 47 0 22 18 19 24 -20 43 -45 21 -61 21 -69 0z"/> <path d="M4523 594 c-7 -20 11 -38 32 -31 13 6 13 10 3 27 -15 24 -27 26 -35 4z"/> <path d="M3317 639 c-23 -14 -47 -62 -47 -96 1 -35 19 -60 52 -68 58 -15 113 94 71 142 -23 27 -53 35 -76 22z"/> <path d="M3625 530 c-4 -7 -3 -16 2 -21 12 -12 45 0 40 15 -5 15 -34 19 -42 6z"/> </g> </svg> 