 <svg  version="1.0" xmlns="http://www.w3.org/2000/svg"  width="100px" height="100px" viewBox="-60 0 530.000000 510.000000"  preserveAspectRatio="xMidYMid meet">  <g transform="translate(0.000000,1270.000000) scale(0.100000,-0.100000)" fill="#ffffff" stroke="none"> <path d="M740 11573 c0 -181 -5 -843 -10 -1472 -11 -1157 -11 -1160 21 -1161 8 0 17 735 25 1955 4 528 8 963 11 967 2 4 660 7 1463 7 803 0 1461 -3 1463 -7 3 -4 7 -439 11 -967 8 -1220 17 -1955 25 -1955 32 1 32 4 21 1161 -5 629 -10 1291 -10 1472 l0 327 -1510 0 -1510 0 0 -327z"/> <path d="M807 11730 c-2 -58 -5 -722 -6 -1475 l-2 -1371 26 -79 c44 -133 101 -231 185 -316 123 -125 226 -167 677 -273 180 -43 315 -88 459 -152 l104 -46 112 50 c152 67 301 114 548 172 357 84 459 128 580 249 84 85 141 182 185 316 l26 80 -3 1370 c-1 753 -4 1417 -6 1475 l-3 105 -1439 0 -1438 0 -5 -105z m1303 13 l0 -28 -85 3 -85 3 0 -25 c0 -25 3 -26 55 -26 50 0 55 -2 55 -22 0 -22 -4 -23 -55 -20 l-55 4 0 -37 0 -36 85 3 c85 3 85 3 85 -22 l0 -25 -117 3 -118 3 0 117 0 117 110 6 c61 3 113 6 118 7 4 1 7 -10 7 -25z m502 7 c23 -11 25 -15 16 -36 -10 -22 -13 -23 -32 -11 -29 19 -76 27 -103 16 -35 -13 -29 -37 12 -44 19 -3 50 -7 69 -10 45 -7 68 -35 64 -76 -4 -45 -44 -73 -106 -73 -38 0 -99 15 -120 29 -1 2 3 14 9 28 l12 26 25 -19 c31 -25 104 -27 122 -5 19 23 4 32 -68 44 -78 13 -92 23 -92 71 0 36 16 60 50 73 22 9 111 1 142 -13z m-1642 -79 c0 -103 7 -114 72 -109 56 4 69 29 66 126 l-3 72 28 0 29 0 -4 -100 c-2 -75 -7 -103 -19 -115 -38 -38 -158 -41 -202 -5 -20 16 -22 29 -25 119 l-4 101 31 0 31 0 0 -89z m360 13 c36 -41 69 -74 73 -74 5 0 7 34 5 75 l-3 75 27 0 27 0 3 -120 3 -120 -37 0 c-24 0 -38 5 -38 13 0 7 -32 44 -71 82 l-70 70 3 -83 3 -82 -30 0 -30 0 3 120 3 120 32 -1 c27 0 42 -12 97 -75z m235 -44 l0 -120 -30 0 -30 0 0 120 0 120 30 0 30 0 0 -120z m95 106 c0 -8 14 -45 31 -83 l31 -68 34 74 c19 40 31 77 28 82 -3 5 12 9 34 9 l39 0 -50 -102 c-26 -56 -49 -110 -50 -120 -1 -14 -10 -18 -40 -18 -21 0 -36 4 -32 9 3 6 -18 60 -48 120 l-53 111 38 0 c26 0 38 -4 38 -14z m696 6 c15 -10 34 -47 34 -67 0 -9 -14 -30 -31 -46 l-31 -29 23 -32 c12 -18 29 -39 37 -45 13 -11 8 -13 -32 -13 -26 0 -45 4 -42 8 3 5 -8 28 -25 50 -24 33 -37 42 -61 42 -30 0 -30 0 -26 -50 l3 -50 -35 0 -35 0 3 120 3 120 102 0 c56 0 107 -4 113 -8z m379 -112 l0 -120 -32 0 -33 0 0 120 0 120 33 0 32 0 0 -120z m266 92 c60 -54 44 -175 -27 -202 -14 -6 -64 -10 -112 -10 l-87 0 0 120 0 120 97 0 c93 0 99 -1 129 -28z m209 11 c1 -10 25 -64 54 -120 l53 -103 -44 0 c-27 0 -42 4 -38 10 3 6 3 19 0 30 -5 17 -15 20 -66 20 -58 0 -60 -1 -65 -30 -6 -26 -11 -30 -40 -30 l-33 0 54 112 c30 61 52 115 49 120 -3 4 13 8 35 8 32 0 41 -4 41 -17z m351 -11 c60 -54 44 -175 -27 -202 -14 -6 -64 -10 -112 -10 l-87 0 0 120 0 120 97 0 c93 0 99 -1 129 -28z m-1931 -273 c0 -9 -32 -54 -104 -148 -9 -11 0 -13 51 -9 51 3 63 1 66 -11 2 -9 23 23 46 72 23 48 39 92 36 97 -4 6 10 10 34 10 30 0 39 -3 35 -14 -3 -8 15 -52 40 -98 25 -47 46 -88 46 -91 0 -4 -16 -7 -35 -7 -23 0 -35 5 -34 13 4 34 -1 38 -53 35 -46 -3 -53 -6 -56 -25 -3 -23 -6 -23 -133 -23 -88 0 -129 4 -129 11 0 6 22 39 48 73 73 92 73 89 8 84 -54 -3 -56 -2 -56 22 l0 25 95 -3 c55 -2 95 -8 95 -13z m-555 -3 c39 -17 55 -42 55 -88 0 -76 -44 -106 -157 -107 l-62 -1 -3 105 -3 105 68 0 c37 0 83 -6 102 -14z m275 -8 c0 -22 -3 -23 -70 -20 -66 3 -70 2 -70 -18 0 -20 4 -22 45 -18 42 3 45 2 45 -22 0 -24 -3 -25 -45 -22 -43 4 -45 3 -45 -23 l0 -27 70 4 c67 3 70 2 70 -19 0 -22 -3 -23 -97 -23 l-98 0 0 105 0 105 98 0 c94 0 97 -1 97 -22z m620 6 c0 -8 12 -36 27 -61 24 -41 28 -44 39 -28 7 10 21 37 31 61 16 39 22 44 51 44 l32 0 0 -105 0 -105 -28 0 -28 0 4 61 c5 73 -4 72 -45 -1 -15 -28 -30 -50 -33 -50 -3 0 -19 26 -37 58 l-32 57 -1 -62 c0 -60 -1 -63 -24 -63 -24 0 -25 1 -28 105 l-3 105 38 0 c27 0 37 -4 37 -16z m390 3 c26 -13 39 -52 22 -69 -7 -7 -4 -20 6 -38 15 -25 15 -30 0 -52 -19 -29 -54 -38 -142 -38 l-61 0 0 105 0 105 75 0 c41 0 86 -6 100 -13z m223 2 c96 -49 65 -184 -44 -196 -96 -11 -153 56 -125 145 16 50 114 79 169 51z m217 -9 c0 -11 20 -56 45 -101 25 -45 45 -83 45 -85 0 -2 -15 -4 -34 -4 -28 0 -35 4 -38 23 -3 19 -10 22 -55 25 -53 3 -58 -1 -54 -35 1 -8 -10 -13 -29 -13 -16 0 -30 2 -30 5 0 3 18 41 40 85 22 44 40 89 40 100 0 16 7 20 35 20 28 0 35 -4 35 -20z m170 7 c0 -7 25 -37 56 -67 l56 -55 -4 68 c-3 66 -3 67 22 67 l25 0 0 -105 c0 -101 -1 -105 -21 -105 -14 0 -48 26 -89 68 l-66 67 3 -67 c4 -67 4 -68 -22 -68 l-25 0 0 105 0 105 33 0 c19 0 32 -5 32 -13z m373 0 c25 -11 27 -14 14 -31 -11 -15 -17 -17 -35 -7 -54 29 -122 -1 -122 -54 0 -14 9 -34 20 -45 30 -30 110 -25 110 7 0 11 -8 14 -30 11 -26 -4 -30 -2 -30 20 0 18 4 23 16 18 9 -3 32 -6 53 -6 l37 0 -1 -42 c-1 -41 -3 -44 -40 -56 -62 -21 -124 -10 -157 27 -47 52 -28 135 36 161 31 13 97 11 129 -3z m197 -2 c0 -9 19 -52 42 -98 24 -45 44 -85 46 -89 2 -5 -12 -8 -31 -8 -29 0 -36 4 -39 23 -3 19 -10 22 -55 25 -51 3 -53 2 -53 -22 0 -22 -5 -26 -30 -26 -16 0 -30 2 -30 5 0 3 18 41 40 85 22 44 40 89 40 100 0 16 7 20 35 20 25 0 35 -4 35 -15z m-1045 -380 c457 -70 821 -349 901 -690 24 -105 15 -267 -20 -363 -49 -131 -130 -247 -235 -337 -66 -57 -141 -109 -141 -98 0 14 14 27 71 70 94 69 89 71 -172 72 -219 1 -228 0 -234 -19 -3 -11 -13 -20 -21 -20 -12 0 -12 4 -4 20 10 20 8 20 -115 20 -170 0 -164 19 7 22 l131 3 19 55 c21 61 53 193 62 258 l6 42 -105 0 c-88 0 -105 -3 -105 -15 0 -9 -11 -38 -25 -64 -20 -40 -28 -48 -45 -44 -30 8 -22 41 20 82 22 21 30 35 23 38 -7 3 -13 9 -13 14 0 5 56 9 125 9 l125 0 -1 123 c-1 214 -18 256 -107 257 -40 0 -42 -2 -36 -24 6 -26 -25 -57 -84 -82 -19 -7 -36 -22 -39 -33 -3 -11 -11 -22 -19 -25 -10 -4 -14 3 -14 25 0 17 4 28 10 24 11 -7 4 14 -17 55 -7 14 -13 30 -13 36 0 6 -18 36 -40 67 -22 30 -40 60 -40 65 0 11 -46 22 -55 14 -12 -13 -4 -52 11 -52 13 0 15 -8 9 -52 -15 -122 -41 -163 -56 -89 -6 30 -34 71 -49 71 -3 0 -4 -15 -2 -34 8 -69 -83 -183 -138 -171 -14 3 -50 1 -80 -4 -42 -7 -59 -5 -76 6 -33 21 -74 85 -69 108 2 11 6 37 9 58 l5 37 -43 0 -44 0 -11 -75 c-6 -42 -11 -127 -11 -190 l0 -115 140 0 c77 0 140 -4 140 -9 0 -5 -62 -10 -137 -10 -75 -1 -138 -3 -139 -4 -11 -13 41 -241 75 -329 l11 -28 130 0 c85 0 129 -4 125 -10 -4 -6 -57 -10 -126 -10 -117 0 -119 -1 -109 -20 8 -16 8 -20 -4 -20 -8 0 -18 9 -21 20 -6 19 -15 20 -148 20 -78 -1 -161 -5 -185 -9 -23 -5 -45 -5 -48 0 -3 5 -28 9 -56 9 l-51 0 23 -25 c13 -14 47 -41 77 -62 29 -20 53 -43 53 -50 0 -9 -15 -4 -45 17 -157 108 -268 246 -331 412 -26 67 -28 84 -29 213 0 127 3 147 27 213 110 303 421 535 827 617 171 35 359 38 546 10z m-73 -790 c17 -52 23 -91 22 -150 -2 -95 -6 -125 -15 -119 -4 2 -9 -3 -13 -11 -4 -12 -32 -15 -156 -15 -124 0 -152 3 -156 15 -4 8 -9 13 -13 11 -3 -2 -6 27 -6 64 0 38 3 63 7 57 6 -9 8 -9 8 0 0 6 16 30 35 53 19 23 32 47 28 52 -3 7 -1 8 5 4 12 -7 42 42 42 69 0 14 4 13 30 -5 17 -12 30 -28 30 -36 0 -8 5 -12 10 -9 6 4 7 11 4 17 -5 7 -2 8 5 4 23 -15 50 21 76 99 6 19 7 19 20 -5 8 -14 24 -56 37 -95z m-115 78 c-4 -3 -7 0 -7 7 0 7 3 10 7 7 3 -4 3 -10 0 -14z m40 0 c-4 -3 -7 0 -7 7 0 7 3 10 7 7 3 -4 3 -10 0 -14z m194 -41 c-29 -56 -41 -61 -41 -15 0 42 7 57 30 65 28 10 32 -9 11 -50z m-220 -5 l-24 -22 19 27 c10 14 21 24 23 22 3 -3 -6 -15 -18 -27z m-134 -14 c-4 -3 -7 0 -7 7 0 7 3 10 7 7 3 -4 3 -10 0 -14z m-37 -77 c0 -3 -5 -8 -12 -12 -7 -4 -8 -3 -4 4 7 12 16 16 16 8z m327 -93 c-4 -3 -7 0 -7 7 0 7 3 10 7 7 3 -4 3 -10 0 -14z m0 -30 c-4 -3 -7 0 -7 7 0 7 3 10 7 7 3 -4 3 -10 0 -14z m18 -168 l0 -30 -245 0 c-228 0 -245 1 -248 18 -9 47 -8 48 250 45 l243 -3 0 -30z m-40 -65 c3 -5 1 -19 -5 -30 -10 -19 -20 -20 -198 -20 -194 0 -212 3 -212 42 0 17 14 18 204 18 123 0 207 -4 211 -10z m-65 -82 c1 -51 -125 -1161 -128 -1133 -6 55 -22 51 -23 -5 0 -30 -2 -50 -5 -45 -2 6 -31 260 -64 565 -33 305 -62 574 -65 598 l-6 42 145 0 c145 0 146 0 146 -22z m-560 -108 c84 -20 225 -82 266 -117 20 -17 25 -49 64 -408 23 -214 44 -410 47 -434 l6 -43 -45 34 c-81 62 -195 100 -353 119 -108 12 -237 9 -242 -7 -3 -8 49 -13 174 -17 193 -5 256 -17 358 -67 84 -41 108 -68 115 -135 l6 -55 -39 0 c-23 0 -63 11 -95 27 -51 25 -63 27 -181 25 -69 0 -172 -8 -228 -16 -57 -9 -105 -16 -108 -16 -11 0 -4 29 8 33 6 3 3 6 -8 7 -23 1 -59 45 -50 60 3 6 1 10 -4 10 -7 0 -11 37 -11 101 0 126 -20 268 -67 469 -41 180 -42 182 -26 187 28 10 119 -381 125 -532 1 -47 2 -48 5 -10 7 63 -25 263 -73 454 -24 97 -42 176 -41 177 1 1 14 5 28 9 27 7 27 6 53 -102 33 -139 53 -261 65 -393 l10 -105 -5 140 c-5 165 -22 293 -64 482 -16 76 -30 142 -30 147 0 16 249 -2 340 -24z m1180 20 c0 -5 -13 -71 -29 -147 -41 -193 -59 -327 -64 -473 -3 -69 -3 -107 -1 -85 19 199 45 358 81 487 15 55 17 57 42 51 14 -3 27 -7 29 -8 1 -1 -9 -42 -23 -91 -40 -137 -84 -369 -89 -469 l-5 -90 9 79 c12 104 34 214 71 356 32 120 42 141 59 124 7 -7 5 -28 -6 -65 -46 -154 -85 -386 -91 -536 -4 -94 -10 -153 -16 -153 -6 0 -7 -3 -4 -6 12 -12 -27 -64 -48 -64 -16 0 -17 -2 -5 -10 10 -6 12 -12 5 -19 -7 -7 -43 -5 -110 5 -193 29 -402 19 -436 -23 -7 -7 -32 -13 -61 -13 l-49 0 7 53 c8 67 42 104 132 146 91 41 215 61 383 61 124 0 138 2 132 16 -6 15 -22 16 -142 11 -215 -10 -385 -60 -463 -135 l-28 -26 0 30 c0 16 20 211 45 434 51 463 33 413 170 480 83 40 165 65 263 79 82 12 242 13 242 1z m-1581 -447 c47 -196 64 -316 65 -458 1 -111 4 -133 19 -150 10 -11 27 -36 37 -56 l19 -35 73 13 c94 16 320 28 380 19 26 -4 63 -18 83 -32 33 -22 46 -24 145 -24 99 0 112 2 145 24 20 14 57 28 83 32 60 9 286 -3 380 -19 66 -12 75 -12 80 2 3 9 18 35 34 59 29 42 30 47 33 180 1 84 11 181 24 252 24 133 66 308 75 317 18 19 15 -19 -13 -134 -46 -192 -62 -311 -60 -460 l2 -132 -31 -32 c-17 -18 -37 -48 -43 -66 -10 -30 -14 -33 -37 -29 -249 52 -497 47 -518 -9 -9 -23 -299 -23 -308 0 -18 49 -209 60 -421 25 -121 -19 -134 -18 -135 17 0 7 -16 31 -35 52 l-36 40 -3 173 c-3 146 -8 195 -34 313 -16 77 -37 164 -45 193 -13 43 -14 52 -2 52 9 0 23 -42 44 -127z m831 -678 c0 -8 -4 -15 -10 -15 -5 0 -10 7 -10 15 0 8 5 15 10 15 6 0 10 -7 10 -15z m-502 -195 c8 -16 17 -30 22 -30 5 0 14 14 22 30 7 17 21 30 30 30 15 0 18 -9 18 -60 0 -45 -3 -60 -14 -60 -9 0 -16 13 -18 33 l-4 32 -13 -27 c-8 -16 -18 -28 -22 -28 -5 0 -15 12 -23 28 l-15 27 -1 -32 c0 -23 -5 -33 -15 -33 -12 0 -15 13 -15 60 0 51 3 60 18 60 9 0 23 -13 30 -30z m241 21 c25 -16 3 -30 -28 -18 -23 8 -33 8 -45 -2 -39 -32 3 -84 50 -62 29 13 43 -4 15 -18 -71 -38 -146 34 -94 91 17 19 77 25 102 9z m91 -21 c7 -16 17 -30 22 -30 5 0 15 14 21 30 8 20 18 30 32 30 18 0 20 -6 20 -60 0 -50 -3 -60 -17 -60 -14 0 -18 8 -18 33 l-1 32 -17 -27 c-9 -16 -19 -28 -23 -28 -3 0 -12 12 -20 28 l-13 27 -4 -32 c-2 -20 -9 -33 -18 -33 -11 0 -14 15 -14 60 0 52 2 60 19 60 11 0 23 -12 31 -30z m175 13 c6 -17 7 -17 19 0 7 9 21 17 30 17 16 0 15 -3 -3 -29 l-21 -29 26 -31 c26 -31 26 -31 3 -31 -12 0 -28 8 -35 18 -13 16 -15 16 -28 0 -7 -10 -21 -18 -30 -18 -15 0 -15 4 5 31 l22 31 -22 29 -22 29 25 0 c13 0 27 -8 31 -17z m125 -28 l0 -45 40 0 c29 0 40 -4 40 -15 0 -12 -13 -15 -55 -15 l-55 0 0 60 c0 47 3 60 15 60 11 0 15 -12 15 -45z m119 8 c13 -34 15 -35 27 -18 8 10 14 27 14 37 0 11 7 18 20 18 25 0 25 -1 -5 -59 -13 -27 -21 -51 -18 -55 4 -3 -3 -6 -14 -6 -19 0 -27 11 -59 88 -13 29 -13 32 4 32 12 0 23 -13 31 -37z m141 -23 c0 -50 -3 -60 -17 -60 -15 0 -18 10 -18 60 0 50 3 60 18 60 14 0 17 -10 17 -60z m60 0 c0 -47 -3 -60 -15 -60 -12 0 -15 13 -15 60 0 47 3 60 15 60 12 0 15 -13 15 -60z m70 0 c0 -47 -3 -60 -15 -60 -12 0 -15 13 -15 60 0 47 3 60 15 60 12 0 15 -13 15 -60z"/> <path d="M2200 11690 l0 -31 63 3 c59 3 62 4 62 28 0 24 -3 25 -62 28 l-63 3 0 -31z"/> <path d="M2840 11640 l0 -80 50 0 c63 0 90 23 90 78 0 61 -21 82 -86 82 l-54 0 0 -80z"/> <path d="M3147 11655 l-17 -35 35 0 c19 0 35 2 35 4 0 13 -23 66 -29 66 -4 0 -15 -16 -24 -35z"/> <path d="M3392 11643 l3 -78 52 -3 c65 -4 93 19 93 76 0 63 -21 82 -91 82 l-60 0 3 -77z"/> <path d="M1742 11376 c-10 -22 -9 -28 3 -32 15 -6 35 2 35 15 0 4 -6 15 -13 25 -12 17 -14 16 -25 -8z"/> <path d="M960 11364 l0 -67 47 6 c50 5 73 25 73 64 0 36 -34 63 -80 63 l-40 0 0 -66z"/> <path d="M2240 11410 c0 -19 5 -21 48 -18 34 2 47 7 47 18 0 11 -13 16 -47 18 -43 3 -48 1 -48 -18z"/> <path d="M2240 11325 c0 -23 4 -25 43 -25 46 0 69 14 60 36 -3 9 -22 14 -54 14 -46 0 -49 -2 -49 -25z"/> <path d="M2477 11412 c-25 -27 -22 -78 5 -96 46 -33 108 -4 108 49 0 55 -77 87 -113 47z"/> <path d="M2751 11382 c-16 -30 -14 -42 8 -42 27 0 32 11 16 39 -12 24 -13 24 -24 3z"/> <path d="M3491 11382 c-16 -30 -14 -42 8 -42 27 0 32 11 16 39 -12 24 -13 24 -24 3z"/> <path d="M2167 11063 c-9 -2 -14 -9 -11 -15 4 -6 -1 -8 -13 -4 -12 4 -29 -1 -46 -14 -14 -11 -30 -20 -36 -20 -13 0 -116 -102 -131 -130 -10 -19 -8 -20 52 -20 60 0 64 2 86 33 12 18 22 38 22 45 0 20 52 26 95 11 64 -23 87 -5 43 31 -19 15 -21 21 -10 31 10 11 12 10 12 -3 0 -9 5 -20 10 -23 6 -4 10 8 10 29 0 28 -4 36 -17 36 -15 0 -16 2 -3 10 11 7 8 9 -15 9 -16 -1 -38 -3 -48 -6z"/> <path d="M2271 11022 c-1 -30 4 -54 11 -58 8 -5 9 -2 5 9 -4 11 -1 17 9 17 10 0 13 7 8 25 -5 22 -3 25 19 25 14 0 38 -5 53 -10 15 -6 29 -8 32 -5 7 7 -64 36 -103 42 l-32 5 -2 -50z"/> <path d="M2027 11046 c-26 -7 -49 -15 -50 -17 -2 -2 -14 -21 -27 -41 -19 -28 -39 -42 -82 -58 -32 -12 -71 -32 -86 -46 l-27 -24 70 2 c68 3 70 4 73 31 2 15 9 27 18 27 8 0 30 18 50 40 19 21 56 53 81 70 51 33 50 34 -20 16z"/> <path d="M2435 11042 c6 -5 21 -13 34 -17 17 -5 22 -4 19 6 -3 8 -18 15 -34 17 -19 2 -25 0 -19 -6z"/> <path d="M1774 10998 c-17 -5 -36 -18 -42 -29 -17 -26 -6 -24 53 11 50 30 46 36 -11 18z"/> <path d="M1635 10940 c-3 -5 -2 -10 4 -10 5 0 13 5 16 10 3 6 2 10 -4 10 -5 0 -13 -4 -16 -10z"/> <path d="M1720 10914 c-79 -53 -80 -54 -21 -54 44 0 52 2 42 14 -9 11 -6 21 15 45 14 17 24 31 22 31 -2 0 -28 -16 -58 -36z"/> <path d="M2817 10943 c-13 -13 36 -53 65 -53 16 0 43 -7 59 -16 17 -8 38 -14 47 -12 10 2 -13 20 -59 46 -75 41 -99 49 -112 35z"/> <path d="M1550 10897 c-40 -23 -50 -33 -36 -35 10 -2 30 7 44 20 28 25 68 27 58 3 -3 -9 0 -12 10 -8 17 6 17 9 4 34 -13 24 -14 24 -80 -14z"/> <path d="M2213 10913 c4 -3 10 -3 14 0 3 4 0 7 -7 7 -7 0 -10 -3 -7 -7z"/> <path d="M2130 10880 c0 -5 5 -10 11 -10 5 0 7 5 4 10 -3 6 -8 10 -11 10 -2 0 -4 -4 -4 -10z"/> <path d="M1467 10833 c-4 -3 -7 -11 -7 -17 0 -6 5 -5 12 2 6 6 9 14 7 17 -3 3 -9 2 -12 -2z"/> <path d="M1630 10822 c0 -10 -3 -22 -7 -26 -4 -4 -8 -16 -8 -26 0 -11 -3 -20 -7 -20 -36 0 -40 1 -34 15 3 8 2 15 -3 15 -10 0 -38 -32 -31 -35 3 -1 -8 -13 -25 -27 -16 -14 -49 -62 -73 -107 l-43 -81 178 0 178 0 22 81 c13 44 39 113 58 152 19 39 35 72 35 74 0 2 -54 3 -120 3 -110 0 -120 -2 -120 -18z"/> <path d="M1865 10770 c-31 -62 -85 -208 -85 -231 0 -5 24 -9 53 -9 55 0 66 6 107 61 19 26 38 32 138 45 36 5 42 3 42 -12 0 -13 14 -25 42 -37 38 -15 43 -16 51 -2 5 10 16 14 28 10 15 -5 19 -1 19 19 0 31 -9 56 -21 56 -5 0 -9 -7 -9 -15 0 -23 -10 -18 -47 20 -19 19 -39 35 -46 35 -12 -1 17 -26 36 -33 7 -2 5 -12 -5 -26 -10 -14 -18 -18 -23 -12 -3 6 0 11 7 11 7 1 3 9 -11 20 -17 15 -27 17 -37 10 -10 -9 -11 -7 -7 9 4 16 1 19 -18 14 -13 -4 -35 -19 -51 -35 -30 -31 -88 -40 -88 -14 0 32 13 46 41 46 29 0 40 22 19 35 -6 4 -8 11 -5 16 4 5 1 9 -5 9 -6 0 -8 11 -5 28 5 22 4 24 -5 10 -6 -10 -15 -18 -20 -18 -16 0 -11 27 5 34 29 11 15 26 -25 26 -39 0 -40 -1 -75 -70z"/> <path d="M2010 10828 c0 -7 7 -21 14 -31 12 -16 17 -16 35 -5 12 7 21 21 21 30 0 14 -8 18 -35 18 -22 0 -35 -5 -35 -12z"/> <path d="M2126 10825 c-19 -14 -19 -15 7 -15 17 0 27 5 27 15 0 19 -9 19 -34 0z"/> <path d="M3006 10828 c4 -7 16 -23 27 -35 10 -12 16 -26 13 -31 -5 -9 19 -38 60 -71 13 -11 14 -16 5 -19 -8 -3 -17 1 -21 7 -8 14 -61 43 -66 38 -2 -2 15 -24 38 -48 59 -61 78 -90 78 -119 0 -20 2 -22 11 -10 8 11 12 12 16 3 6 -16 143 -18 143 -2 0 13 -69 112 -115 164 -19 22 -35 35 -35 29 0 -6 9 -19 20 -29 19 -17 19 -20 4 -36 -9 -10 -13 -23 -9 -28 9 -16 -11 -13 -24 3 -6 7 -8 26 -5 44 5 24 1 34 -17 51 -13 11 -35 29 -48 40 -22 19 -22 21 -5 21 15 0 13 4 -11 20 -34 23 -70 27 -59 8z"/> <path d="M3110 10771 c0 -5 7 -12 16 -15 14 -5 15 -4 4 9 -14 17 -20 19 -20 6z"/> <path d="M2310 10730 c0 -5 -7 -10 -15 -10 -8 0 -15 -6 -15 -14 0 -16 70 -28 85 -15 5 6 4 9 -3 9 -7 0 -21 9 -32 20 -11 11 -20 16 -20 10z"/> <path d="M1430 10703 c-25 -14 -56 -35 -70 -48 -14 -12 -39 -30 -55 -39 -19 -11 -35 -31 -41 -52 l-11 -34 62 0 62 0 19 42 c10 23 34 67 52 97 18 30 31 55 30 57 -2 1 -23 -9 -48 -23z"/> <path d="M1200 10561 c-14 -28 -13 -31 14 -31 18 0 24 5 24 25 0 30 -23 33 -38 6z"/> <path d="M2500 10545 c7 -8 20 -15 28 -15 13 0 12 3 -4 15 -25 19 -40 19 -24 0z"/> <path d="M1159 10473 c-16 -36 -16 -38 2 -45 15 -6 17 -12 10 -31 -5 -13 -6 -28 -3 -34 9 -13 52 -10 81 6 13 7 36 10 52 7 26 -5 29 -3 39 37 6 23 15 54 20 70 l9 27 -60 0 c-67 0 -70 -12 -10 -38 29 -13 32 -16 16 -20 -10 -2 -21 1 -23 7 -2 6 -11 11 -20 11 -8 0 -23 6 -31 14 -9 8 -27 17 -41 21 -22 5 -27 1 -41 -32z"/> <path d="M1375 10458 c-8 -28 -15 -57 -15 -64 0 -21 53 -71 83 -78 16 -4 35 -19 45 -35 17 -30 57 -55 105 -65 39 -9 67 -40 60 -66 -5 -19 -2 -21 33 -18 l39 3 -3 48 c-3 49 14 263 24 304 l6 23 -181 0 -180 0 -16 -52z"/> <path d="M3103 10490 c6 -24 -8 -27 -17 -3 -5 12 -9 14 -18 5 -9 -9 -4 -20 20 -45 33 -34 40 -65 20 -85 -9 -9 -18 -6 -40 15 l-28 27 0 -25 c0 -14 11 -36 24 -48 14 -13 28 -40 31 -62 4 -21 10 -41 15 -44 4 -3 6 -14 3 -25 -3 -13 1 -22 12 -26 28 -11 38 10 24 51 -10 26 -10 38 -2 43 18 12 -23 242 -43 242 -4 0 -4 -9 -1 -20z"/> <path d="M3152 10433 c10 -43 21 -91 24 -108 5 -28 7 -29 19 -11 29 39 40 -10 20 -86 -4 -16 -13 -28 -21 -28 -8 0 -14 -10 -14 -25 0 -22 4 -25 35 -25 19 0 35 -4 35 -8 0 -4 29 -9 65 -10 60 -3 65 -1 70 21 5 18 -2 32 -26 58 -18 19 -36 33 -41 32 -4 -2 -8 4 -8 12 0 13 4 13 28 -2 15 -10 33 -25 40 -33 22 -25 7 133 -20 215 l-24 70 -100 3 -101 3 19 -78z m68 21 c0 -9 14 -27 31 -41 35 -30 55 -71 40 -86 -6 -6 -15 -4 -26 7 -9 9 -14 16 -10 16 3 0 1 9 -5 20 -8 14 -8 20 0 20 6 0 8 5 5 11 -4 6 -13 8 -20 6 -13 -5 -48 57 -38 67 9 9 23 -4 23 -20z m58 -216 c-7 -13 -11 -30 -10 -38 2 -10 -5 -16 -18 -16 -21 0 -24 14 -14 54 4 15 14 22 31 22 22 0 23 -2 11 -22z m59 -35 c-4 -3 -10 -3 -14 0 -3 4 0 7 7 7 7 0 10 -3 7 -7z"/> <path d="M2895 10492 c-6 -4 -21 -22 -34 -39 -22 -33 -22 -53 4 -115 4 -11 3 -18 -4 -18 -6 0 -11 7 -11 16 0 10 -5 14 -15 10 -10 -4 -25 9 -46 42 -17 26 -27 37 -24 24 4 -13 8 -80 10 -150 l3 -127 186 -3 c122 -2 186 1 186 8 0 5 -6 10 -14 10 -7 0 -29 18 -47 39 -66 77 -102 154 -49 106 25 -23 25 -17 1 37 -11 24 -25 58 -31 75 -7 18 -17 30 -22 27 -5 -4 -23 10 -40 30 -31 38 -36 40 -53 28z"/> <path d="M1116 10334 c-8 -59 -8 -167 0 -188 4 -11 19 -16 50 -16 24 0 44 3 44 6 0 3 -9 17 -19 30 -15 19 -17 31 -11 60 5 20 13 41 19 47 6 6 11 24 11 40 0 23 -3 27 -19 22 -13 -4 -25 2 -39 20 -11 14 -22 25 -25 25 -2 0 -7 -21 -11 -46z"/> <path d="M3183 10133 c4 -3 10 -3 14 0 3 4 0 7 -7 7 -7 0 -10 -3 -7 -7z"/> <path d="M1137 10058 c22 -79 87 -196 139 -255 44 -52 47 -53 100 -53 30 0 54 3 54 6 0 3 -11 20 -24 37 -13 18 -41 82 -61 144 -32 99 -40 113 -66 123 -16 7 -34 21 -40 31 -8 15 -21 19 -64 19 l-54 0 16 -52z"/> <path d="M1620 10068 c0 -50 -6 -59 -41 -75 -22 -9 -27 -20 -32 -59 -3 -27 -12 -53 -21 -59 -9 -7 -13 -15 -10 -18 4 -3 -3 -18 -15 -32 -19 -25 -19 -28 -4 -51 15 -24 18 -24 165 -24 139 0 150 1 145 18 -38 116 -58 196 -68 262 l-11 80 -54 0 -54 0 0 -42z"/> <path d="M2761 10030 c-10 -66 -30 -146 -68 -262 -5 -17 6 -18 145 -18 l151 0 25 37 c14 20 23 40 20 45 -3 4 4 21 15 37 12 16 21 33 21 39 0 5 10 24 23 43 13 19 29 57 36 84 7 28 15 56 17 63 3 9 -39 12 -185 12 l-189 0 -11 -80z"/> <path d="M3161 10066 c-6 -25 -11 -50 -11 -56 0 -18 41 -1 75 30 17 16 41 30 55 32 14 2 26 11 28 21 3 15 -5 17 -66 17 l-70 0 -11 -44z"/> <path d="M3338 10103 c20 -4 22 -9 16 -36 -8 -40 3 -31 16 12 8 30 8 31 -23 30 -25 -1 -27 -3 -9 -6z"/> <path d="M3115 9847 c-40 -10 -50 -18 -80 -69 l-16 -28 82 0 c69 0 80 2 70 14 -8 10 -9 16 -2 21 13 7 9 68 -4 71 -6 1 -28 -3 -50 -9z"/> <path d="M2175 9750 c-3 -6 1 -7 9 -4 18 7 21 14 7 14 -6 0 -13 -4 -16 -10z"/> <path d="M2280 9745 c-19 -22 -8 -25 13 -3 9 10 13 18 8 18 -5 0 -14 -7 -21 -15z"/> <path d="M1734 9509 c-3 -6 2 -18 12 -27 17 -16 17 -16 5 0 -12 15 -10 19 10 27 23 10 24 10 2 10 -12 1 -25 -4 -29 -10z"/> <path d="M1793 9504 c-7 -18 14 -35 34 -27 7 3 13 14 13 24 0 24 -38 26 -47 3z m35 -5 c-2 -6 -8 -10 -13 -10 -5 0 -11 4 -13 10 -2 6 4 11 13 11 9 0 15 -5 13 -11z"/> <path d="M1850 9501 c0 -29 49 -18 50 12 0 4 -11 7 -25 7 -18 0 -25 -5 -25 -19z m37 2 c-4 -3 -10 -3 -14 0 -3 4 0 7 7 7 7 0 10 -3 7 -7z"/> <path d="M1910 9500 c0 -11 5 -20 11 -20 6 0 9 6 6 14 -4 9 1 17 11 19 12 3 11 5 -5 6 -17 1 -23 -5 -23 -19z"/> <path d="M1690 9455 c0 -5 5 -17 10 -25 9 -13 11 -13 20 0 5 8 10 20 10 25 0 6 -5 3 -10 -5 -9 -13 -11 -13 -20 0 -5 8 -10 11 -10 5z"/> <path d="M1751 9443 c-7 -15 -5 -18 14 -18 19 0 21 3 14 18 -5 9 -12 17 -14 17 -2 0 -9 -8 -14 -17z"/> <path d="M1801 9443 c-1 -18 4 -23 22 -22 15 1 17 3 5 6 -9 2 -19 12 -21 21 -3 12 -5 10 -6 -5z"/> <path d="M1851 9443 c-1 -17 5 -23 19 -23 14 0 20 6 19 23 -1 16 -2 18 -6 5 -2 -10 -8 -18 -13 -18 -5 0 -11 8 -13 18 -4 13 -5 11 -6 -5z"/> <path d="M1910 9440 c0 -14 6 -20 23 -19 19 1 19 2 3 6 -13 4 -15 7 -7 13 10 5 9 9 -3 13 -11 5 -16 1 -16 -13z"/> <path d="M1960 9448 c0 -4 6 -8 13 -8 8 0 7 -4 -3 -10 -12 -8 -11 -10 7 -10 15 0 21 6 20 18 -1 17 -37 27 -37 10z"/> <path d="M1702 9310 c0 -14 2 -19 5 -12 2 6 2 18 0 25 -3 6 -5 1 -5 -13z"/> <path d="M1810 9320 c0 -7 3 -10 7 -7 3 4 3 10 0 14 -4 3 -7 0 -7 -7z"/> <path d="M1902 9310 c0 -14 2 -19 5 -12 2 6 2 18 0 25 -3 6 -5 1 -5 -13z"/> <path d="M1940 9322 c0 -5 7 -15 15 -22 8 -7 15 -9 15 -6 0 4 -7 14 -15 22 -8 9 -15 11 -15 6z"/> <path d="M1740 9310 c0 -7 3 -10 7 -7 3 4 3 10 0 14 -4 3 -7 0 -7 -7z"/> <path d="M1751 9244 c0 -11 3 -14 6 -6 3 7 2 16 -1 19 -3 4 -6 -2 -5 -13z"/> <path d="M1884 9248 c-4 -7 -3 -8 4 -4 12 7 16 16 8 16 -3 0 -8 -5 -12 -12z"/> <path d="M1941 9244 c0 -11 3 -14 6 -6 3 7 2 16 -1 19 -3 4 -6 -2 -5 -13z"/> <path d="M1723 9193 c4 -3 10 -3 14 0 3 4 0 7 -7 7 -7 0 -10 -3 -7 -7z"/> <path d="M1796 9184 c-3 -9 -4 -19 -1 -22 3 -3 5 1 5 9 0 11 2 11 10 -1 5 -8 10 -10 10 -5 0 6 -4 16 -9 23 -6 11 -10 10 -15 -4z"/> <path d="M1882 9181 c-11 -7 -11 -9 0 -14 9 -3 15 1 15 9 0 8 -1 14 -1 14 -1 0 -7 -4 -14 -9z"/> <path d="M1980 9180 c0 -7 3 -10 7 -7 3 4 3 10 0 14 -4 3 -7 0 -7 -7z"/> <path d="M2000 9180 c0 -7 3 -10 7 -7 3 4 3 10 0 14 -4 3 -7 0 -7 -7z"/> <path d="M1700 9170 c0 -7 3 -10 7 -7 3 4 3 10 0 14 -4 3 -7 0 -7 -7z"/> <path d="M1750 9170 c0 -7 3 -10 7 -7 3 4 3 10 0 14 -4 3 -7 0 -7 -7z"/> <path d="M1761 9114 c0 -11 3 -14 6 -6 3 7 2 16 -1 19 -3 4 -6 -2 -5 -13z"/> <path d="M1910 9126 c0 -2 8 -10 18 -17 15 -13 16 -12 3 4 -13 16 -21 21 -21 13z"/> <path d="M1780 9110 c0 -7 3 -10 7 -7 3 4 3 10 0 14 -4 3 -7 0 -7 -7z"/> <path d="M1860 9050 c0 -7 3 -10 7 -7 3 4 3 10 0 14 -4 3 -7 0 -7 -7z"/> <path d="M1911 9044 c0 -11 3 -14 6 -6 3 7 2 16 -1 19 -3 4 -6 -2 -5 -13z"/> <path d="M1730 9040 c0 -7 3 -10 7 -7 3 4 3 10 0 14 -4 3 -7 0 -7 -7z"/> <path d="M1750 9040 c0 -7 3 -10 7 -7 3 4 3 10 0 14 -4 3 -7 0 -7 -7z"/> <path d="M1750 8990 c0 -7 3 -10 7 -7 3 4 3 10 0 14 -4 3 -7 0 -7 -7z"/> <path d="M1820 8990 c0 -7 3 -10 7 -7 3 4 3 10 0 14 -4 3 -7 0 -7 -7z"/> <path d="M1986 8987 c3 -10 9 -15 12 -12 3 3 0 11 -7 18 -10 9 -11 8 -5 -6z"/> <path d="M1850 8981 c0 -6 4 -13 10 -16 6 -3 7 1 4 9 -7 18 -14 21 -14 7z"/> <path d="M1770 8970 c0 -7 3 -10 7 -7 3 4 3 10 0 14 -4 3 -7 0 -7 -7z"/> <path d="M1635 8769 c-89 -12 -95 -14 -95 -37 0 -19 2 -19 68 -4 47 11 121 16 244 16 162 1 174 2 130 14 -63 17 -260 23 -347 11z"/> <path d="M1933 8723 c4 -3 10 -3 14 0 3 4 0 7 -7 7 -7 0 -10 -3 -7 -7z"/> <path d="M1998 8713 c6 -2 18 -2 25 0 6 3 1 5 -13 5 -14 0 -19 -2 -12 -5z"/> <path d="M2048 8703 c7 -3 16 -2 19 1 4 3 -2 6 -13 5 -11 0 -14 -3 -6 -6z"/> <path d="M2003 8663 c9 -2 23 -2 30 0 6 3 -1 5 -18 5 -16 0 -22 -2 -12 -5z"/> <path d="M2058 8653 c7 -3 16 -2 19 1 4 3 -2 6 -13 5 -11 0 -14 -3 -6 -6z"/> <path d="M2093 8643 c4 -3 10 -3 14 0 3 4 0 7 -7 7 -7 0 -10 -3 -7 -7z"/> <path d="M2576 9485 c-3 -9 -6 -35 -6 -56 0 -24 -4 -38 -10 -34 -13 8 -13 -21 1 -46 5 -11 15 -16 21 -13 8 5 9 1 4 -11 -7 -20 9 -36 30 -28 9 3 10 13 3 36 -7 24 -5 37 9 56 18 28 24 101 7 101 -5 0 -20 3 -31 6 -14 4 -23 0 -28 -11z"/> <path d="M2644 9309 c-3 -6 -1 -16 6 -22 10 -9 11 -9 6 1 -12 21 7 13 36 -15 36 -34 37 -15 2 21 -29 28 -39 32 -50 15z"/> <path d="M2587 9260 c3 -11 9 -20 14 -20 5 0 9 9 9 20 0 11 -6 20 -14 20 -9 0 -12 -7 -9 -20z"/> <path d="M2695 9230 c3 -5 8 -10 11 -10 3 0 2 5 -1 10 -3 6 -8 10 -11 10 -3 0 -2 -4 1 -10z"/> <path d="M2738 9228 c15 -15 16 -32 2 -23 -5 3 -10 -1 -10 -9 0 -9 4 -16 9 -16 5 0 12 -8 14 -17 4 -14 5 -13 6 4 0 12 5 23 11 25 18 6 -2 48 -23 48 -16 0 -18 -3 -9 -12z"/> <path d="M2640 9190 c0 -23 13 -26 29 -6 9 11 8 15 -5 20 -23 9 -24 8 -24 -14z"/> <path d="M2673 9160 c-3 -11 -10 -20 -15 -20 -6 0 -5 -7 2 -15 17 -20 31 -19 23 2 -4 9 -2 14 3 11 5 -4 9 5 9 18 0 29 -15 32 -22 4z"/> <path d="M2706 9163 c-6 -14 -5 -15 5 -6 7 7 10 15 7 18 -3 3 -9 -2 -12 -12z"/> <path d="M2519 9153 c-13 -16 -12 -17 4 -4 9 7 17 15 17 17 0 8 -8 3 -21 -13z"/> <path d="M2715 9140 c-3 -5 1 -10 10 -10 9 0 13 5 10 10 -3 6 -8 10 -10 10 -2 0 -7 -4 -10 -10z"/> <path d="M2469 9103 l-24 -28 28 24 c25 23 32 31 24 31 -2 0 -14 -12 -28 -27z"/> <path d="M2777 9114 c3 -8 -1 -14 -11 -14 -9 0 -16 -4 -16 -9 0 -14 -31 -22 -45 -11 -9 7 -16 6 -25 -5 -7 -8 -18 -15 -25 -15 -7 0 -15 -10 -18 -22 -5 -19 -4 -21 6 -8 7 8 27 16 45 17 29 2 32 0 32 -27 0 -31 7 -39 41 -45 18 -4 20 -1 15 20 -6 25 8 43 19 25 12 -19 27 2 20 29 -8 28 -13 52 -14 62 -1 4 -8 9 -15 12 -10 4 -13 1 -9 -9z"/> <path d="M2573 8769 c-119 -18 -101 -24 75 -25 124 0 197 -5 245 -16 68 -16 68 -16 65 5 -2 17 -13 23 -43 29 -71 13 -278 17 -342 7z"/> <path d="M2548 8723 c7 -3 16 -2 19 1 4 3 -2 6 -13 5 -11 0 -14 -3 -6 -6z"/> <path d="M2478 8713 c6 -2 18 -2 25 0 6 3 1 5 -13 5 -14 0 -19 -2 -12 -5z"/> <path d="M2438 8703 c7 -3 16 -2 19 1 4 3 -2 6 -13 5 -11 0 -14 -3 -6 -6z"/> <path d="M2943 8683 c4 -3 10 -3 14 0 3 4 0 7 -7 7 -7 0 -10 -3 -7 -7z"/> <path d="M2473 8663 c9 -2 23 -2 30 0 6 3 -1 5 -18 5 -16 0 -22 -2 -12 -5z"/> <path d="M2423 8653 c4 -3 10 -3 14 0 3 4 0 7 -7 7 -7 0 -10 -3 -7 -7z"/> <path d="M2393 8643 c4 -3 10 -3 14 0 3 4 0 7 -7 7 -7 0 -10 -3 -7 -7z"/> <path d="M365 9125 c6 -33 73 -227 99 -285 5 -13 -14 -18 -109 -33 -126 -19 -264 -52 -278 -66 -5 -5 43 -18 110 -31 152 -28 259 -62 314 -99 l44 -30 24 47 c13 26 50 96 82 155 32 59 59 111 59 115 0 4 -31 22 -69 40 -76 35 -199 127 -250 188 l-33 39 7 -40z"/> <path d="M4107 9125 c-45 -56 -171 -152 -248 -187 -38 -18 -69 -36 -69 -40 0 -4 27 -56 59 -115 32 -59 69 -129 82 -155 l24 -47 44 30 c55 37 162 71 314 99 67 13 115 26 110 31 -14 14 -148 45 -274 65 -62 10 -115 19 -117 20 -2 1 3 15 11 31 24 46 99 272 95 288 -2 11 -12 4 -31 -20z"/> <path d="M703 8782 c-29 -53 -70 -129 -92 -169 l-39 -71 28 -61 c60 -125 158 -248 262 -326 139 -104 296 -159 653 -229 231 -45 338 -76 453 -131 106 -51 167 -91 235 -153 l47 -45 48 45 c67 62 128 102 234 153 115 55 222 86 453 131 356 69 517 126 652 228 106 80 204 202 263 327 l29 61 -29 52 c-16 28 -57 104 -93 169 l-65 119 -22 -74 c-64 -212 -199 -386 -371 -478 -88 -47 -247 -95 -464 -140 -110 -23 -243 -55 -295 -72 -97 -31 -236 -96 -302 -142 l-38 -25 -37 25 c-67 46 -206 111 -303 142 -52 17 -185 49 -295 72 -217 45 -376 93 -465 141 -172 91 -306 264 -370 477 -12 39 -23 72 -23 72 -1 0 -26 -44 -54 -98z m156 -286 c21 -23 22 -54 1 -41 -12 8 -81 -37 -77 -50 2 -5 13 -11 25 -13 28 -4 29 -29 1 -37 -11 -4 -22 -5 -23 -3 -1 1 -19 24 -40 50 -34 43 -36 48 -20 54 38 11 86 39 91 51 7 19 17 16 42 -11z m76 -142 l27 -25 -28 -32 c-16 -18 -30 -33 -31 -35 -4 -9 -43 11 -43 23 0 7 -9 15 -20 18 -45 12 -6 77 46 77 11 0 34 -12 49 -26z m2640 -63 c13 -27 30 -51 36 -53 17 -6 -11 -48 -32 -48 -9 0 -19 -7 -23 -15 -8 -22 -33 -18 -50 7 -22 31 -20 64 6 88 12 11 16 20 10 20 -26 0 -2 46 25 50 2 0 14 -22 28 -49z m-2464 -13 c27 -16 39 -29 37 -42 -4 -23 -28 -34 -28 -12 0 20 -19 31 -33 17 -8 -8 -6 -11 6 -11 20 0 22 -21 5 -38 -14 -14 -42 -16 -33 -2 3 6 1 10 -4 10 -6 0 -11 -7 -11 -15 0 -10 10 -15 31 -15 32 0 36 -15 7 -33 -11 -8 -28 -3 -64 19 -49 31 -67 54 -40 54 16 0 66 59 66 78 0 18 16 15 61 -10z m2370 -141 c-8 -10 -20 -16 -27 -13 -7 3 -15 -2 -18 -10 -10 -26 -49 -12 -57 19 -11 41 2 67 42 86 l34 17 20 -41 c19 -36 19 -42 6 -58z m-2211 61 c0 -7 -11 -31 -24 -52 -13 -22 -22 -46 -19 -53 4 -9 -4 -13 -26 -13 -17 0 -31 4 -31 9 0 5 -12 11 -27 13 -35 4 -40 27 -12 62 18 23 28 27 56 24 25 -3 32 -1 29 9 -4 9 4 13 24 13 17 0 30 -5 30 -12z m2064 -3 c13 -10 16 -18 9 -27 -5 -7 -6 -24 -2 -38 4 -14 7 -21 8 -17 1 5 6 5 12 2 14 -9 -19 -45 -42 -45 -12 0 -20 11 -24 33 -4 17 -12 38 -17 44 -7 9 -5 21 6 38 19 29 24 30 50 10z m-76 -63 c2 -14 -2 -22 -12 -22 -9 0 -16 -12 -18 -32 -2 -25 -8 -34 -25 -36 -20 -3 -23 1 -23 31 0 20 -6 37 -12 40 -21 6 12 39 34 34 10 -3 21 -1 24 4 9 16 29 4 32 -19z m-1935 12 c3 -4 0 -19 -9 -35 -8 -16 -10 -29 -5 -29 6 0 17 14 26 30 17 32 22 35 43 21 12 -7 11 -13 -1 -37 -8 -16 -12 -34 -10 -40 5 -16 -35 -25 -50 -11 -6 7 -23 12 -37 12 -21 0 -25 4 -22 25 2 21 8 59 11 68 2 5 48 2 54 -4z m1627 -19 c0 -23 2 -24 21 -15 15 9 24 8 35 -1 36 -29 -5 -109 -56 -109 -32 0 -40 14 -40 70 0 21 -6 41 -12 44 -9 3 -7 9 6 20 29 23 46 20 46 -9z m188 3 c18 -18 15 -26 -15 -55 -25 -23 -25 -24 -5 -14 33 17 42 3 13 -20 -40 -33 -91 -20 -91 24 0 21 52 77 72 77 8 0 19 -5 26 -12z m-268 -6 c0 -14 -23 -32 -42 -32 -21 0 -23 11 -6 28 13 13 48 16 48 4z m-1365 -38 c0 -12 -7 -19 -20 -19 -11 0 -19 6 -17 13 4 21 -15 4 -21 -18 -4 -16 0 -20 20 -20 38 0 22 -25 -19 -28 -42 -4 -63 17 -54 53 13 50 111 66 111 19z m129 -44 c-4 -25 -12 -48 -18 -52 -16 -11 -36 -10 -36 3 0 6 -9 8 -20 4 -28 -9 -52 12 -44 39 12 41 34 56 81 54 l44 -2 -7 -46z m243 33 c5 -15 -36 -28 -49 -15 -6 6 -7 15 -3 22 9 14 47 9 52 -7z m855 1 c-11 -20 5 -94 21 -94 5 0 16 8 23 18 15 20 38 5 29 -20 -5 -11 -93 -48 -116 -48 -3 0 -6 23 -6 51 0 28 -6 56 -12 62 -26 26 -8 43 47 46 18 1 21 -2 14 -15z m138 -12 c0 -15 5 -33 12 -40 15 -15 -7 -42 -33 -42 -14 0 -19 7 -19 28 0 15 -5 33 -11 39 -8 8 -4 15 12 27 32 22 39 20 39 -12z m-1102 -18 c4 -25 -26 -41 -34 -19 -8 20 -24 9 -24 -17 0 -15 5 -19 20 -15 12 3 20 0 20 -8 0 -17 -37 -26 -66 -15 -32 13 -33 62 -1 85 31 22 81 16 85 -11z m92 -11 c-1 -24 -30 -88 -42 -90 -26 -5 -41 13 -29 35 6 11 11 30 11 41 0 17 6 21 30 21 17 0 30 -3 30 -7z m121 -42 c21 -16 22 -22 11 -45 -17 -38 -52 -52 -88 -35 -37 18 -42 45 -13 75 27 29 59 31 90 5z m584 -10 c3 -6 -2 -14 -11 -19 -16 -9 -15 -10 3 -16 28 -9 35 -29 17 -55 -17 -24 -64 -29 -64 -6 0 9 6 12 18 9 9 -3 5 4 -10 16 -33 26 -34 34 -8 60 21 21 45 26 55 11z m-479 -46 c4 -8 15 -15 25 -15 25 0 36 -28 20 -49 -6 -9 -14 -24 -17 -33 -7 -19 -30 -23 -53 -9 -11 7 -10 14 8 40 26 37 14 41 -18 7 -23 -25 -51 -25 -51 -1 0 7 7 18 15 25 8 7 15 21 15 31 0 24 48 27 56 4z m373 -14 c8 -14 6 -25 -10 -45 -11 -14 -16 -26 -10 -26 5 0 14 8 20 17 5 10 13 14 17 10 11 -11 -8 -39 -39 -57 -21 -12 -28 -12 -41 -1 -23 19 -20 71 6 98 26 28 44 29 57 4z"/> <path d="M875 8330 c-3 -5 1 -10 9 -10 8 0 18 5 21 10 3 6 -1 10 -9 10 -8 0 -18 -4 -21 -10z"/> <path d="M3530 8243 c0 -5 5 -15 10 -23 8 -12 10 -11 10 8 0 12 -4 22 -10 22 -5 0 -10 -3 -10 -7z"/> <path d="M3422 8165 c0 -16 2 -22 5 -12 2 9 2 23 0 30 -3 6 -5 -1 -5 -18z"/> <path d="M1175 8149 c-4 -6 -5 -13 -2 -16 7 -7 27 6 27 18 0 12 -17 12 -25 -2z"/> <path d="M2962 8055 c0 -16 2 -22 5 -12 2 9 2 23 0 30 -3 6 -5 -1 -5 -18z"/> <path d="M3091 8094 c0 -11 3 -14 6 -6 3 7 2 16 -1 19 -3 4 -6 -2 -5 -13z"/> <path d="M1570 8045 c-7 -9 -11 -18 -8 -20 3 -3 11 1 18 10 7 9 11 18 8 20 -3 3 -11 -1 -18 -10z"/> <path d="M1930 7966 c-6 -9 -10 -21 -8 -28 3 -8 9 -4 17 10 15 28 9 39 -9 18z"/> <path d="M2420 7890 c0 -7 3 -10 7 -7 3 4 3 10 0 14 -4 3 -7 0 -7 -7z"/> </g> </svg> 