<?xml version="1.0" standalone="no"?>
<!DOCTYPE svg PUBLIC "-//W3C//DTD SVG 20010904//EN"
 "http://www.w3.org/TR/2001/REC-SVG-20010904/DTD/svg10.dtd">
<svg version="1.0" xmlns="http://www.w3.org/2000/svg"
 width="900.000000pt" height="900.000000pt" viewBox="0 0 900.000000 900.000000"
 preserveAspectRatio="xMidYMid meet">

<g transform="translate(0.000000,900.000000) scale(0.100000,-0.100000)"
fill="#fff" stroke="none">
<path d="M4155 6833 c-1236 -60 -2294 -363 -3045 -874 -766 -521 -1082 -1212
-860 -1880 126 -380 399 -715 826 -1015 1542 -1081 4503 -1213 6364 -285 683
341 1130 780 1304 1279 190 547 15 1131 -482 1603 -775 738 -2227 1189 -3791
1177 -141 -1 -283 -3 -316 -5z m961 -377 c974 -86 1785 -319 2417 -695 651
-388 989 -902 916 -1394 -44 -298 -234 -603 -533 -856 -1111 -940 -3444 -1264
-5326 -739 -1354 377 -2168 1133 -2035 1888 126 714 1014 1340 2335 1645 377
87 793 142 1290 169 145 8 776 -4 936 -18z"/>
<path d="M4040 6068 c-6 -29 -67 -321 -135 -648 -178 -855 -294 -1408 -301
-1436 l-6 -24 238 2 238 3 102 485 c57 267 108 509 114 538 l12 54 256 -4
c251 -3 258 -4 307 -28 34 -17 56 -36 68 -60 33 -64 23 -129 -138 -856 -14
-61 -25 -116 -25 -123 0 -8 68 -11 238 -11 l238 0 100 453 c94 430 99 458 99
567 -1 92 -5 125 -22 166 -43 107 -113 167 -243 208 -111 35 -236 46 -535 46
-240 0 -265 2 -265 17 0 9 32 166 70 349 39 184 70 338 70 344 0 6 -81 10
-234 10 l-234 0 -12 -52z"/>
<path d="M1975 5378 c-2 -13 -48 -257 -100 -543 -52 -286 -118 -644 -146 -795
-27 -151 -63 -345 -80 -431 -16 -85 -29 -163 -29 -172 0 -15 22 -17 235 -17
129 0 235 1 236 3 0 1 21 121 47 267 l48 265 279 6 c300 7 386 16 535 55 270
71 439 229 531 500 102 300 68 538 -100 704 -74 74 -151 118 -261 151 -73 23
-86 23 -632 27 l-557 3 -6 -23z m973 -362 c32 -10 72 -34 98 -58 81 -74 93
-187 39 -356 -44 -136 -118 -209 -255 -254 -57 -18 -95 -22 -317 -26 -243 -4
-253 -3 -253 15 0 16 110 613 126 681 l5 24 252 -4 c204 -4 262 -8 305 -22z"/>
<path d="M5751 5348 c-29 -146 -351 -1901 -351 -1915 0 -10 45 -13 235 -13
129 0 235 1 235 3 1 1 22 121 48 267 l47 265 285 6 c388 8 536 35 714 126 103
54 210 153 265 246 47 79 100 223 122 332 71 343 -80 609 -401 706 -73 23 -86
23 -632 27 l-556 3 -11 -53z m972 -331 c68 -22 119 -60 148 -110 64 -112 0
-387 -113 -483 -96 -80 -213 -104 -509 -104 -203 0 -209 1 -209 20 0 11 13 89
30 173 16 83 43 229 60 322 17 94 34 178 37 188 5 18 19 19 256 15 196 -4 263
-8 300 -21z"/>
</g>
</svg>
